<svg width="101" height="100" viewBox="0 0 101 100" fill="none" xmlns="http://www.w3.org/2000/svg">
<g filter="url(#filter0_i_49_1658)">
<path d="M100.707 23.6278V76.3378C100.71 79.4441 100.101 82.5205 98.9144 85.3912C97.7278 88.2619 95.987 90.8706 93.7916 93.0681C91.5962 95.2656 88.9892 97.009 86.1196 98.1984C83.2501 99.3878 80.1743 100 77.068 100H24.358C18.0884 99.997 12.0762 97.5058 7.64183 93.0736C3.20744 88.6413 0.713358 82.6304 0.707287 76.3607V23.6507C0.704274 20.545 1.31358 17.4691 2.50036 14.5991C3.68714 11.729 5.42809 9.1211 7.62365 6.92448C9.81921 4.72785 12.4263 2.98563 15.2958 1.79746C18.1652 0.609294 21.2408 -0.00150486 24.3466 2.78419e-06H77.0565C80.1609 -0.00150236 83.2351 0.608455 86.1038 1.79505C88.9724 2.98164 91.5792 4.72164 93.7754 6.91568C95.9715 9.10973 97.7141 11.7149 98.9034 14.5823C100.093 17.4498 100.706 20.5235 100.707 23.6278Z" fill="#FCBC34"/>
</g>
<g style="mix-blend-mode:soft-light" opacity="0.4">
<path d="M50.9442 38.9804L48.217 53.3152L50.9442 55.4924V38.9804Z" fill="black"/>
</g>
<g clip-path="url(#clip0_49_1658)">
<path d="M84.301 39.8747C84.301 34.2485 79.7539 29.6875 74.1448 29.6875C68.5356 29.6875 63.9885 34.2485 63.9885 39.8747V42.9378C63.9885 48.564 68.5356 53.125 74.1448 53.125C79.7539 53.125 84.301 48.564 84.301 42.9378V39.8747Z" fill="black"/>
<path d="M70.8523 37.1357C71.8395 37.1357 72.6398 36.3353 72.6398 35.3481C72.6398 34.3609 71.8395 33.5605 70.8523 33.5605C69.865 33.5605 69.0647 34.3609 69.0647 35.3481C69.0647 36.3353 69.865 37.1357 70.8523 37.1357Z" fill="white"/>
<path opacity="0.1" d="M74.1639 44.0223C76.4611 44.0223 78.3234 42.16 78.3234 39.8628C78.3234 37.5656 76.4611 35.7033 74.1639 35.7033C71.8667 35.7033 70.0044 37.5656 70.0044 39.8628C70.0044 42.16 71.8667 44.0223 74.1639 44.0223Z" fill="white"/>
<path d="M36.6448 39.8747C36.6448 34.2485 32.0977 29.6875 26.4885 29.6875C20.8794 29.6875 16.3323 34.2485 16.3323 39.8747V42.9378C16.3323 48.564 20.8794 53.125 26.4885 53.125C32.0977 53.125 36.6448 48.564 36.6448 42.9378V39.8747Z" fill="black"/>
<path d="M23.196 37.1357C24.1832 37.1357 24.9836 36.3353 24.9836 35.3481C24.9836 34.3609 24.1832 33.5605 23.196 33.5605C22.2088 33.5605 21.4084 34.3609 21.4084 35.3481C21.4084 36.3353 22.2088 37.1357 23.196 37.1357Z" fill="white"/>
<path opacity="0.1" d="M26.5076 44.0223C28.8049 44.0223 30.6672 42.16 30.6672 39.8628C30.6672 37.5656 28.8049 35.7033 26.5076 35.7033C24.2104 35.7033 22.3481 37.5656 22.3481 39.8628C22.3481 42.16 24.2104 44.0223 26.5076 44.0223Z" fill="white"/>
</g>
<path d="M64.8359 64.8437C65.0444 64.8437 65.2484 64.9046 65.4231 65.0191C65.5978 65.1336 65.7356 65.2968 65.8199 65.4887C67.1395 68.0831 67.463 71.0759 66.7284 73.8952C65.9939 76.7145 64.2528 79.1625 61.8381 80.7711C59.4116 82.4152 56.4684 83.1021 53.5706 82.7006C50.6728 82.2991 48.0235 80.8373 46.1285 78.5945C46.0256 78.3741 45.9947 78.1265 46.0403 77.8873C46.0859 77.6482 46.2057 77.4297 46.3824 77.2633C46.5591 77.097 46.7837 76.9913 47.0238 76.9615C47.264 76.9317 47.5073 76.9792 47.7189 77.0974C49.2728 78.9463 51.4484 80.1549 53.8309 80.4926C56.2134 80.8304 58.636 80.2736 60.6368 78.9285C63.7718 76.821 66.5064 72.2604 63.8405 66.3755C63.7455 66.1056 63.7539 65.8098 63.8639 65.5457C63.9739 65.2817 64.1777 65.0684 64.4354 64.9474C64.5605 64.8857 64.6968 64.8504 64.8359 64.8437V64.8437Z" fill="black"/>
<defs>
<filter id="filter0_i_49_1658" x="0.707275" y="0" width="100" height="100" filterUnits="userSpaceOnUse" color-interpolation-filters="sRGB">
<feFlood flood-opacity="0" result="BackgroundImageFix"/>
<feBlend mode="normal" in="SourceGraphic" in2="BackgroundImageFix" result="shape"/>
<feColorMatrix in="SourceAlpha" type="matrix" values="0 0 0 0 0 0 0 0 0 0 0 0 0 0 0 0 0 0 127 0" result="hardAlpha"/>
<feOffset dx="-6" dy="-6"/>
<feComposite in2="hardAlpha" operator="arithmetic" k2="-1" k3="1"/>
<feColorMatrix type="matrix" values="0 0 0 0 0 0 0 0 0 0 0 0 0 0 0 0 0 0 0.04 0"/>
<feBlend mode="normal" in2="shape" result="effect1_innerShadow_49_1658"/>
</filter>
<clipPath id="clip0_49_1658">
<rect width="68.3282" height="23.4101" fill="white" transform="translate(16.3323 29.6875)"/>
</clipPath>
</defs>
</svg>
