<svg width="101" height="100" viewBox="0 0 101 100" fill="none" xmlns="http://www.w3.org/2000/svg">
<g filter="url(#filter0_i_49_1604)">
<path d="M100.707 23.6278V76.3378C100.71 79.4441 100.101 82.5205 98.9144 85.3912C97.7278 88.2619 95.987 90.8706 93.7916 93.0681C91.5962 95.2656 88.9892 97.009 86.1196 98.1984C83.2501 99.3878 80.1743 100 77.068 100H24.358C18.0884 99.997 12.0762 97.5058 7.64183 93.0736C3.20744 88.6413 0.713358 82.6304 0.707287 76.3607V23.6507C0.704274 20.545 1.31358 17.4691 2.50036 14.5991C3.68714 11.729 5.42809 9.1211 7.62365 6.92448C9.81921 4.72785 12.4263 2.98563 15.2958 1.79746C18.1652 0.609294 21.2408 -0.00150486 24.3466 2.78419e-06H77.0565C80.1609 -0.00150236 83.2351 0.608455 86.1038 1.79505C88.9724 2.98164 91.5792 4.72164 93.7754 6.91568C95.9715 9.10973 97.7141 11.7149 98.9034 14.5823C100.093 17.4498 100.706 20.5235 100.707 23.6278Z" fill="#FCBC34"/>
</g>
<g style="mix-blend-mode:soft-light" opacity="0.4">
<path d="M50.9442 38.9804L48.217 53.3152L50.9442 55.4924V38.9804Z" fill="black"/>
</g>
<g style="mix-blend-mode:soft-light" filter="url(#filter1_f_49_1604)">
<path d="M30.3076 51.5625H21.8882C18.3883 51.5625 15.551 54.3607 15.551 57.8125C15.551 61.2643 18.3883 64.0625 21.8882 64.0625H30.3076C33.8075 64.0625 36.6448 61.2643 36.6448 57.8125C36.6448 54.3607 33.8075 51.5625 30.3076 51.5625Z" fill="#C140A3"/>
</g>
<g style="mix-blend-mode:soft-light" filter="url(#filter2_f_49_1604)">
<path d="M78.7575 51.5625H70.3133C66.8202 51.5625 63.9885 54.3582 63.9885 57.8069V57.8181C63.9885 61.2668 66.8202 64.0625 70.3133 64.0625H78.7575C82.2506 64.0625 85.0823 61.2668 85.0823 57.8181V57.8069C85.0823 54.3582 82.2506 51.5625 78.7575 51.5625Z" fill="#C140A3"/>
</g>
<path fill-rule="evenodd" clip-rule="evenodd" d="M78.8323 56.25C78.8323 56.3764 78.8323 56.5028 78.8323 56.6293C78.8214 58.6685 78.5833 60.7001 78.1226 62.6862C77.3901 65.8211 76.0261 68.7722 74.1145 71.3576C72.2029 73.9431 69.7843 76.1081 67.0077 77.7193C57.2091 83.5923 43.4042 83.4659 33.8118 77.34C31.1184 75.6734 28.7895 73.4758 26.9657 70.8802C25.1419 68.2845 23.861 65.3446 23.2005 62.238C22.7833 60.2697 22.5761 58.2624 22.5824 56.25C40.4395 63.1459 58.5599 63.1459 76.9092 56.9511L78.8323 56.25Z" fill="#2B1607" stroke="black" stroke-width="1.48" stroke-linecap="round" stroke-linejoin="round"/>
<path fill-rule="evenodd" clip-rule="evenodd" d="M78.8323 56.6227C78.8214 58.6269 78.5834 60.6236 78.1228 62.5755C61.852 73.1141 39.4825 72.8092 23.2003 62.1349C22.7832 60.2005 22.5761 58.2277 22.5824 56.25C40.4322 63.0273 58.5452 63.0273 76.8871 56.939L78.8323 56.6227Z" fill="white"/>
<path fill-rule="evenodd" clip-rule="evenodd" d="M67.8948 77.7227C57.7482 83.5911 43.453 83.4648 33.5198 77.3438C44.8727 79.3605 56.4974 79.4887 67.8948 77.7227Z" fill="white"/>
<path fill-rule="evenodd" clip-rule="evenodd" d="M79.2744 55.6137C79.487 55.7634 79.6135 56.0079 79.6135 56.2687C79.6135 65.0944 75.989 71.7576 70.5341 76.1982C65.0989 80.6228 57.8856 82.8125 50.7073 82.8125C43.5289 82.8125 36.3156 80.6228 30.8804 76.1982C25.4256 71.7576 21.801 65.0944 21.801 56.2687C21.801 56.0054 21.93 55.7589 22.1459 55.6097C22.3618 55.4604 22.637 55.4275 22.8817 55.5216C41.2027 62.5682 59.7106 62.3804 78.546 55.5167C78.79 55.4278 79.0619 55.464 79.2744 55.6137ZM23.4157 57.4315C23.7172 65.1854 27.0356 71.0091 31.8827 74.955C36.9888 79.1117 43.8305 81.2125 50.7073 81.2125C57.584 81.2125 64.4258 79.1117 69.5319 74.955C74.3833 71.0056 77.7033 65.1748 77.9997 57.4105C59.5789 63.8793 41.4036 64.0678 23.4157 57.4315Z" fill="black"/>
<g style="mix-blend-mode:soft-light" opacity="0.4">
<path d="M38.2177 83.6298C41.735 87.6621 57.7736 87.9286 61.6551 83.6298C53.9366 85.3738 45.9362 85.3738 38.2177 83.6298Z" fill="black"/>
</g>
<path d="M76.8341 49.937H71.6777C64.0806 49.937 64.0806 49.9943 64.0806 42.3399V39.7617C64.0836 37.064 65.1566 34.4776 67.0642 32.57C68.9718 30.6624 71.5582 29.5894 74.2559 29.5864C76.9536 29.5894 79.54 30.6624 81.4476 32.57C83.3552 34.4776 84.4282 37.064 84.4312 39.7617V42.3972C84.4083 49.9943 84.4083 49.937 76.8341 49.937Z" fill="black"/>
<path d="M70.8395 37.1218C71.8249 37.1218 72.6237 36.3229 72.6237 35.3375C72.6237 34.3522 71.8249 33.5533 70.8395 33.5533C69.8541 33.5533 69.0553 34.3522 69.0553 35.3375C69.0553 36.3229 69.8541 37.1218 70.8395 37.1218Z" fill="white"/>
<path opacity="0.1" d="M74.1447 43.9955C76.4377 43.9955 78.2965 42.1367 78.2965 39.8438C78.2965 37.5509 76.4377 35.6921 74.1447 35.6921C71.8518 35.6921 69.993 37.5509 69.993 39.8438C69.993 42.1367 71.8518 43.9955 74.1447 43.9955Z" fill="white"/>
<path d="M29.1778 49.937H24.0214C16.4243 49.937 16.4243 49.9943 16.4243 42.3399V39.7617C16.4273 37.064 17.5004 34.4776 19.4079 32.57C21.3155 30.6624 23.9019 29.5894 26.5996 29.5864C29.2974 29.5894 31.8837 30.6624 33.7913 32.57C35.6989 34.4776 36.7719 37.064 36.7749 39.7617V42.3972C36.752 49.9943 36.752 49.937 29.1778 49.937Z" fill="black"/>
<path d="M23.2649 37.1357C24.2521 37.1357 25.0524 36.3353 25.0524 35.3481C25.0524 34.3609 24.2521 33.5605 23.2649 33.5605C22.2776 33.5605 21.4773 34.3609 21.4773 35.3481C21.4773 36.3353 22.2776 37.1357 23.2649 37.1357Z" fill="white"/>
<path opacity="0.1" d="M26.5764 44.0224C28.8736 44.0224 30.7359 42.1601 30.7359 39.8629C30.7359 37.5656 28.8736 35.7034 26.5764 35.7034C24.2791 35.7034 22.4169 37.5656 22.4169 39.8629C22.4169 42.1601 24.2791 44.0224 26.5764 44.0224Z" fill="white"/>
<defs>
<filter id="filter0_i_49_1604" x="0.707275" y="0" width="100" height="100" filterUnits="userSpaceOnUse" color-interpolation-filters="sRGB">
<feFlood flood-opacity="0" result="BackgroundImageFix"/>
<feBlend mode="normal" in="SourceGraphic" in2="BackgroundImageFix" result="shape"/>
<feColorMatrix in="SourceAlpha" type="matrix" values="0 0 0 0 0 0 0 0 0 0 0 0 0 0 0 0 0 0 127 0" result="hardAlpha"/>
<feOffset dx="-6" dy="-6"/>
<feComposite in2="hardAlpha" operator="arithmetic" k2="-1" k3="1"/>
<feColorMatrix type="matrix" values="0 0 0 0 0 0 0 0 0 0 0 0 0 0 0 0 0 0 0.04 0"/>
<feBlend mode="normal" in2="shape" result="effect1_innerShadow_49_1604"/>
</filter>
<filter id="filter1_f_49_1604" x="5.55103" y="41.5625" width="41.0938" height="32.5" filterUnits="userSpaceOnUse" color-interpolation-filters="sRGB">
<feFlood flood-opacity="0" result="BackgroundImageFix"/>
<feBlend mode="normal" in="SourceGraphic" in2="BackgroundImageFix" result="shape"/>
<feGaussianBlur stdDeviation="5" result="effect1_foregroundBlur_49_1604"/>
</filter>
<filter id="filter2_f_49_1604" x="53.9885" y="41.5625" width="41.0938" height="32.5" filterUnits="userSpaceOnUse" color-interpolation-filters="sRGB">
<feFlood flood-opacity="0" result="BackgroundImageFix"/>
<feBlend mode="normal" in="SourceGraphic" in2="BackgroundImageFix" result="shape"/>
<feGaussianBlur stdDeviation="5" result="effect1_foregroundBlur_49_1604"/>
</filter>
</defs>
</svg>
