<svg width="101" height="100" viewBox="0 0 101 100" fill="none" xmlns="http://www.w3.org/2000/svg">
<g filter="url(#filter0_i_49_1464)">
<path d="M100.174 23.6278V76.3378C100.177 79.4441 99.5681 82.5205 98.3814 85.3912C97.1948 88.2619 95.454 90.8706 93.2586 93.0681C91.0632 95.2656 88.4562 97.0089 85.5867 98.1984C82.7171 99.3878 79.6413 100 76.535 100H23.8251C17.5554 99.9969 11.5433 97.5058 7.10887 93.0735C2.67448 88.6413 0.180399 82.6303 0.174328 76.3607V23.6507C0.171315 20.545 0.780623 17.4691 1.9674 14.5991C3.15418 11.729 4.89514 9.1211 7.0907 6.92448C9.28626 4.72785 11.8933 2.98563 14.7628 1.79746C17.6323 0.609294 20.7079 -0.00150486 23.8136 2.78419e-06H76.5236C79.6279 -0.00150236 82.7022 0.608455 85.5708 1.79505C88.4394 2.98164 91.0462 4.72164 93.2424 6.91568C95.4386 9.10973 97.1811 11.7149 98.3705 14.5823C99.5599 17.4498 100.173 20.5235 100.174 23.6278V23.6278Z" fill="#ECA02E"/>
</g>
<g style="mix-blend-mode:soft-light" opacity="0.4">
<path d="M50.4113 38.9804L47.6841 53.3152L50.4113 55.4924V38.9804Z" fill="black"/>
</g>
<g clip-path="url(#clip0_49_1464)">
<path fill-rule="evenodd" clip-rule="evenodd" d="M23.6345 85.8271C23.6345 53.5772 78.322 53.5772 78.322 85.8271H23.6345Z" fill="#2B1607"/>
<path fill-rule="evenodd" clip-rule="evenodd" d="M32.2979 68.8229C41.5684 59.8296 59.6014 59.8996 69.7978 68.8229H32.2979Z" fill="white"/>
<path d="M24.4054 80.9587H77.5031C77.7531 82.5153 77.8669 84.0882 77.8434 85.6618H23.9403C23.9349 84.084 24.0906 82.5093 24.4054 80.9587Z" fill="white"/>
<path d="M78.2752 86.4687H23.6346C23.4214 86.4687 23.2169 86.3957 23.0661 86.2659C22.9153 86.136 22.8306 85.9599 22.8306 85.7763C22.8306 68.7392 37.4052 60.9375 50.9606 60.9375C64.516 60.9375 79.0793 68.7392 79.0793 85.747C79.0855 85.8407 79.0692 85.9345 79.0315 86.0225C78.9937 86.1106 78.9353 86.191 78.8598 86.2587C78.7844 86.3264 78.6935 86.38 78.5929 86.4162C78.4923 86.4523 78.3842 86.4702 78.2752 86.4687ZM24.45 85.0839H77.4146C77.2447 78.1403 74.3909 72.3183 69.1477 68.2029C64.1294 64.3638 57.6272 62.277 50.9153 62.3516C38.3678 62.3613 24.8463 69.4804 24.45 85.0839Z" fill="black"/>
</g>
<path d="M73.6118 49.2187C70.9182 49.2187 68.3349 48.1487 66.4303 46.2441C64.5256 44.3394 63.4556 41.7562 63.4556 39.0626V38.548C63.4556 30.3819 72.4795 25.098 78.2439 25.8528C83.3563 26.5047 83.7681 29.7757 83.7681 34.6365V39.0626C83.765 41.7553 82.694 44.3368 80.79 46.2407C78.886 48.1447 76.3045 49.2157 73.6118 49.2187Z" fill="black"/>
<path d="M70.3501 33.3355C71.3373 33.3355 72.1376 32.5352 72.1376 31.5479C72.1376 30.5607 71.3373 29.7604 70.3501 29.7604C69.3628 29.7604 68.5625 30.5607 68.5625 31.5479C68.5625 32.5352 69.3628 33.3355 70.3501 33.3355Z" fill="white"/>
<path opacity="0.1" d="M73.6615 40.2221C75.9587 40.2221 77.821 38.3599 77.821 36.0626C77.821 33.7654 75.9587 31.9031 73.6615 31.9031C71.3642 31.9031 69.502 33.7654 69.502 36.0626C69.502 38.3599 71.3642 40.2221 73.6615 40.2221Z" fill="white"/>
<path d="M25.9613 49.2187C28.6544 49.2157 31.2362 48.1444 33.1395 46.24C35.0427 44.3357 36.1118 41.7542 36.1118 39.0626V38.548C36.1118 30.3819 27.0942 25.098 21.3266 25.8528C16.1998 26.5047 15.7993 29.7757 15.7993 34.6365V39.0626C15.7993 41.7562 16.8699 44.3394 18.7757 46.2441C20.6814 48.1487 23.2662 49.2187 25.9613 49.2187Z" fill="black"/>
<path d="M22.705 33.3355C23.6923 33.3355 24.4926 32.5352 24.4926 31.5479C24.4926 30.5607 23.6923 29.7604 22.705 29.7604C21.7178 29.7604 20.9175 30.5607 20.9175 31.5479C20.9175 32.5352 21.7178 33.3355 22.705 33.3355Z" fill="white"/>
<path opacity="0.1" d="M26.0167 40.2221C28.3139 40.2221 30.1762 38.3599 30.1762 36.0626C30.1762 33.7654 28.3139 31.9031 26.0167 31.9031C23.7195 31.9031 21.8572 33.7654 21.8572 36.0626C21.8572 38.3599 23.7195 40.2221 26.0167 40.2221Z" fill="white"/>
<defs>
<filter id="filter0_i_49_1464" x="0.174316" y="0" width="100" height="100" filterUnits="userSpaceOnUse" color-interpolation-filters="sRGB">
<feFlood flood-opacity="0" result="BackgroundImageFix"/>
<feBlend mode="normal" in="SourceGraphic" in2="BackgroundImageFix" result="shape"/>
<feColorMatrix in="SourceAlpha" type="matrix" values="0 0 0 0 0 0 0 0 0 0 0 0 0 0 0 0 0 0 127 0" result="hardAlpha"/>
<feOffset dx="-6" dy="-6"/>
<feComposite in2="hardAlpha" operator="arithmetic" k2="-1" k3="1"/>
<feColorMatrix type="matrix" values="0 0 0 0 0 0 0 0 0 0 0 0 0 0 0 0 0 0 0.04 0"/>
<feBlend mode="normal" in2="shape" result="effect1_innerShadow_49_1464"/>
</filter>
<clipPath id="clip0_49_1464">
<rect width="62.5" height="33.5937" fill="white" transform="translate(18.9243 60.9375)"/>
</clipPath>
</defs>
</svg>
