<svg width="101" height="100" viewBox="0 0 101 100" fill="none" xmlns="http://www.w3.org/2000/svg">
<g filter="url(#filter0_i_49_1718)">
<path d="M100.049 24.0338L99.7684 76.4636C99.7549 79.5534 99.1325 82.6102 97.9369 85.4593C96.7413 88.3085 94.9959 90.894 92.8005 93.0682C90.6051 95.2424 88.0027 96.9626 85.1421 98.1304C82.2815 99.2982 79.2187 99.8908 76.129 99.8743L23.6992 99.5941C17.4629 99.5578 11.496 97.0479 7.10871 92.6156C2.72146 88.1834 0.27259 82.1911 0.299881 75.9548L0.580092 23.525C0.593606 20.4358 1.21603 17.3795 2.41175 14.531C3.60748 11.6825 5.35305 9.09771 7.54861 6.92443C9.74418 4.75116 12.3467 3.03206 15.2072 1.86546C18.0677 0.698863 21.1302 0.107661 24.2194 0.125671L76.6492 0.405883C79.737 0.420888 82.7917 1.04395 85.6388 2.23948C88.4858 3.43502 91.0696 5.17962 93.2424 7.37368C95.4152 9.56774 97.1346 12.1683 98.3024 15.0268C99.4703 17.8854 100.064 20.946 100.049 24.0338V24.0338Z" fill="#FCBC34"/>
</g>
<g style="mix-blend-mode:soft-light" opacity="0.4">
<path d="M50.4685 39.0403L47.6797 53.2844L50.3808 55.4645L50.4685 39.0403Z" fill="black"/>
</g>
<path d="M23.4541 11.0437C23.6893 11.1673 23.9695 11.2019 24.2331 11.1398C24.4966 11.0778 24.722 10.9241 24.8595 10.7128C24.9971 10.5014 25.0355 10.2496 24.9664 10.0127C24.8974 9.77584 24.7264 9.57334 24.4912 9.44975L24.4856 9.44775L22.2022 8.26275L24.6203 7.00075C25.111 6.74275 24.0783 5.14675 23.5887 5.40475L21.1706 6.66675V4.29475C21.1706 3.77775 19.1075 3.77775 19.1075 4.29475V7.71475L15.8269 9.41675L13.8984 8.44375V5.02375L17.2135 3.30675C17.7042 3.04875 16.6715 1.45275 16.1819 1.71075L13.8984 2.89575V0.38775C13.8984 -0.12925 11.8353 -0.12925 11.8353 0.38775V2.89575L9.55183 1.71075C9.06108 1.45275 8.03174 3.06375 8.52026 3.30675L11.8353 5.02375V8.44375L9.90681 9.41675L6.64185 7.71475V4.26375C6.64185 3.74675 4.57872 3.74675 4.57872 4.26375V6.63575L2.1606 5.37375C1.66985 5.11575 0.640514 6.72675 1.12903 6.96975L3.54715 8.23175L1.26368 9.41675C0.772937 9.67475 1.80562 11.2707 2.29525 11.0127L5.61028 9.29575L8.89082 10.9978V12.9888L5.61028 14.7058L2.29525 12.9888C1.8045 12.7308 0.775162 14.3418 1.26368 14.5848L3.54715 15.7697L1.12903 17.0318C0.638288 17.2898 1.67097 18.8858 2.1606 18.6278L4.57872 17.3658V19.7378C4.57872 20.2548 6.64185 20.2548 6.64185 19.7378V16.2868L9.92239 14.5848L11.8509 15.5577V18.9778L8.53584 20.6948C8.04509 20.9528 9.07777 22.5488 9.56741 22.2908L11.8509 21.1058V23.6168C11.8509 24.1338 13.914 24.1338 13.914 23.6168V21.1088L16.1975 22.2938C16.6882 22.5518 17.7176 20.9408 17.229 20.6978L13.914 18.9808V15.5577L15.8425 14.5848L19.123 16.2868V19.7378C19.123 20.2548 21.1862 20.2548 21.1862 19.7378V17.3658L23.6043 18.6278C24.095 18.8858 25.1244 17.2748 24.6358 17.0318L22.2177 15.7697L24.5012 14.5848C24.9919 14.3268 23.9593 12.7308 23.4696 12.9888L20.1379 14.7058L16.8574 13.0037V11.0127L20.1557 9.31075L23.4541 11.0437ZM15.1492 13.2008L14.1176 13.7177L13.8973 13.8237L12.8657 14.3407L11.8342 13.8237L11.6138 13.7177L10.5823 13.2008V10.8158L11.6138 10.2987L11.8342 10.1927L12.8657 9.67575L13.8973 10.1927L14.1176 10.2987L15.1492 10.8158V12.1217V13.2008Z" fill="#699BF7"/>
<path d="M62.4541 19.0437C62.6893 19.1673 62.9695 19.2019 63.2331 19.1398C63.4966 19.0778 63.722 18.9241 63.8595 18.7128C63.9971 18.5014 64.0355 18.2496 63.9664 18.0127C63.8974 17.7758 63.7264 17.5733 63.4912 17.4497L63.4856 17.4478L61.2022 16.2627L63.6203 15.0008C64.111 14.7428 63.0783 13.1467 62.5887 13.4047L60.1706 14.6667V12.2948C60.1706 11.7778 58.1075 11.7778 58.1075 12.2948V15.7147L54.8269 17.4167L52.8984 16.4438V13.0237L56.2135 11.3068C56.7042 11.0488 55.6715 9.45275 55.1819 9.71075L52.8984 10.8958V8.38775C52.8984 7.87075 50.8353 7.87075 50.8353 8.38775V10.8958L48.5518 9.71075C48.0611 9.45275 47.0317 11.0638 47.5203 11.3068L50.8353 13.0237V16.4438L48.9068 17.4167L45.6419 15.7147V12.2638C45.6419 11.7468 43.5787 11.7468 43.5787 12.2638V14.6357L41.1606 13.3738C40.6699 13.1158 39.6405 14.7267 40.129 14.9697L42.5472 16.2317L40.2637 17.4167C39.7729 17.6747 40.8056 19.2707 41.2952 19.0127L44.6103 17.2957L47.8908 18.9978V20.9888L44.6103 22.7058L41.2952 20.9888C40.8045 20.7308 39.7752 22.3418 40.2637 22.5848L42.5472 23.7697L40.129 25.0318C39.6383 25.2898 40.671 26.8858 41.1606 26.6278L43.5787 25.3658V27.7378C43.5787 28.2548 45.6419 28.2548 45.6419 27.7378V24.2868L48.9224 22.5848L50.8509 23.5577V26.9778L47.5358 28.6948C47.0451 28.9528 48.0778 30.5488 48.5674 30.2908L50.8509 29.1058V31.6168C50.8509 32.1338 52.914 32.1338 52.914 31.6168V29.1088L55.1975 30.2938C55.6882 30.5518 56.7176 28.9408 56.229 28.6978L52.914 26.9808V23.5577L54.8425 22.5848L58.123 24.2868V27.7378C58.123 28.2548 60.1862 28.2548 60.1862 27.7378V25.3658L62.6043 26.6278C63.095 26.8858 64.1244 25.2748 63.6358 25.0318L61.2177 23.7697L63.5012 22.5848C63.9919 22.3268 62.9593 20.7308 62.4696 20.9888L59.1379 22.7058L55.8574 21.0037V19.0127L59.1557 17.3108L62.4541 19.0437ZM54.1492 21.2008L53.1176 21.7177L52.8973 21.8237L51.8657 22.3407L50.8342 21.8237L50.6138 21.7177L49.5823 21.2008V18.8158L50.6138 18.2987L50.8342 18.1927L51.8657 17.6757L52.8973 18.1927L53.1176 18.2987L54.1492 18.8158V20.1217V21.2008Z" fill="#699BF7"/>
<path d="M86.4541 74.0437C86.6893 74.1673 86.9695 74.2019 87.2331 74.1398C87.4966 74.0778 87.722 73.9241 87.8595 73.7128C87.9971 73.5014 88.0355 73.2496 87.9664 73.0127C87.8974 72.7758 87.7264 72.5733 87.4912 72.4497L87.4856 72.4478L85.2022 71.2627L87.6203 70.0008C88.111 69.7428 87.0783 68.1467 86.5887 68.4047L84.1706 69.6667V67.2948C84.1706 66.7778 82.1075 66.7778 82.1075 67.2948V70.7147L78.8269 72.4167L76.8984 71.4438V68.0237L80.2135 66.3068C80.7042 66.0488 79.6715 64.4527 79.1819 64.7107L76.8984 65.8958V63.3878C76.8984 62.8708 74.8353 62.8708 74.8353 63.3878V65.8958L72.5518 64.7107C72.0611 64.4527 71.0317 66.0638 71.5203 66.3068L74.8353 68.0237V71.4438L72.9068 72.4167L69.6419 70.7147V67.2638C69.6419 66.7468 67.5787 66.7468 67.5787 67.2638V69.6357L65.1606 68.3738C64.6699 68.1158 63.6405 69.7267 64.129 69.9697L66.5472 71.2317L64.2637 72.4167C63.7729 72.6747 64.8056 74.2707 65.2952 74.0127L68.6103 72.2957L71.8908 73.9978V75.9888L68.6103 77.7058L65.2952 75.9888C64.8045 75.7308 63.7752 77.3418 64.2637 77.5848L66.5472 78.7697L64.129 80.0318C63.6383 80.2898 64.671 81.8858 65.1606 81.6278L67.5787 80.3658V82.7378C67.5787 83.2548 69.6419 83.2548 69.6419 82.7378V79.2868L72.9224 77.5848L74.8509 78.5577V81.9778L71.5358 83.6948C71.0451 83.9528 72.0778 85.5488 72.5674 85.2908L74.8509 84.1058V86.6168C74.8509 87.1338 76.914 87.1338 76.914 86.6168V84.1088L79.1975 85.2938C79.6882 85.5518 80.7176 83.9408 80.229 83.6978L76.914 81.9808V78.5577L78.8425 77.5848L82.123 79.2868V82.7378C82.123 83.2548 84.1862 83.2548 84.1862 82.7378V80.3658L86.6043 81.6278C87.095 81.8858 88.1244 80.2748 87.6358 80.0318L85.2177 78.7697L87.5012 77.5848C87.9919 77.3268 86.9593 75.7308 86.4696 75.9888L83.1379 77.7058L79.8574 76.0037V74.0127L83.1557 72.3108L86.4541 74.0437ZM78.1492 76.2008L77.1176 76.7177L76.8973 76.8237L75.8657 77.3407L74.8342 76.8237L74.6138 76.7177L73.5823 76.2008V73.8158L74.6138 73.2987L74.8342 73.1927L75.8657 72.6757L76.8973 73.1927L77.1176 73.2987L78.1492 73.8158V75.1217V76.2008Z" fill="#699BF7"/>
<path d="M98.4541 11.0437C98.6893 11.1673 98.9695 11.2019 99.2331 11.1398C99.4966 11.0778 99.722 10.9241 99.8595 10.7128C99.9971 10.5014 100.036 10.2496 99.9664 10.0127C99.8974 9.77584 99.7264 9.57334 99.4912 9.44975L99.4856 9.44775L97.2022 8.26275L99.6203 7.00075C100.111 6.74275 99.0783 5.14675 98.5887 5.40475L96.1706 6.66675V4.29475C96.1706 3.77775 94.1075 3.77775 94.1075 4.29475V7.71475L90.8269 9.41675L88.8984 8.44375V5.02375L92.2135 3.30675C92.7042 3.04875 91.6715 1.45275 91.1819 1.71075L88.8984 2.89575V0.38775C88.8984 -0.12925 86.8353 -0.12925 86.8353 0.38775V2.89575L84.5518 1.71075C84.0611 1.45275 83.0317 3.06375 83.5203 3.30675L86.8353 5.02375V8.44375L84.9068 9.41675L81.6419 7.71475V4.26375C81.6419 3.74675 79.5787 3.74675 79.5787 4.26375V6.63575L77.1606 5.37375C76.6699 5.11575 75.6405 6.72675 76.129 6.96975L78.5472 8.23175L76.2637 9.41675C75.7729 9.67475 76.8056 11.2707 77.2952 11.0127L80.6103 9.29575L83.8908 10.9978V12.9888L80.6103 14.7058L77.2952 12.9888C76.8045 12.7308 75.7752 14.3418 76.2637 14.5848L78.5472 15.7697L76.129 17.0318C75.6383 17.2898 76.671 18.8858 77.1606 18.6278L79.5787 17.3658V19.7378C79.5787 20.2548 81.6419 20.2548 81.6419 19.7378V16.2868L84.9224 14.5848L86.8509 15.5577V18.9778L83.5358 20.6948C83.0451 20.9528 84.0778 22.5488 84.5674 22.2908L86.8509 21.1058V23.6168C86.8509 24.1338 88.914 24.1338 88.914 23.6168V21.1088L91.1975 22.2938C91.6882 22.5518 92.7176 20.9408 92.229 20.6978L88.914 18.9808V15.5577L90.8425 14.5848L94.123 16.2868V19.7378C94.123 20.2548 96.1862 20.2548 96.1862 19.7378V17.3658L98.6043 18.6278C99.095 18.8858 100.124 17.2748 99.6358 17.0318L97.2177 15.7697L99.5012 14.5848C99.9919 14.3268 98.9593 12.7308 98.4696 12.9888L95.1379 14.7058L91.8574 13.0037V11.0127L95.1557 9.31075L98.4541 11.0437ZM90.1492 13.2008L89.1176 13.7177L88.8973 13.8237L87.8657 14.3407L86.8342 13.8237L86.6138 13.7177L85.5823 13.2008V10.8158L86.6138 10.2987L86.8342 10.1927L87.8657 9.67575L88.8973 10.1927L89.1176 10.2987L90.1492 10.8158V12.1217V13.2008Z" fill="#699BF7"/>
<path d="M51.4785 86.125C51.2107 86.125 50.9539 86.0111 50.7645 85.8085C50.5751 85.6058 50.4688 85.3309 50.4688 85.0443C50.4688 84.7577 50.5751 84.4828 50.7645 84.2802C50.9539 84.0775 51.2107 83.9637 51.4785 83.9637C54.4228 83.9637 56.1554 82.8944 56.2404 81.0402C56.3255 78.913 54.274 76.3194 51.3829 76.0236C51.1272 75.9921 50.8928 75.8562 50.7285 75.6443C50.5641 75.4324 50.4825 75.1608 50.5006 74.8861C50.5167 74.6187 50.6204 74.3661 50.7934 74.1725C50.9665 73.979 51.1978 73.857 51.4466 73.8281C54.3059 73.6347 56.2192 71.2914 56.166 69.2779C56.166 67.4806 54.3697 66.4113 51.5104 66.4113C51.2978 66.3365 51.1126 66.1918 50.9813 65.9977C50.8501 65.8037 50.7794 65.5702 50.7794 65.3307C50.7794 65.0911 50.8501 64.8577 50.9813 64.6636C51.1126 64.4695 51.2978 64.3248 51.5104 64.25C56.3255 64.25 58.1112 66.8095 58.1856 69.2097C58.1473 70.3899 57.8172 71.5382 57.229 72.5374C56.6409 73.5366 55.8156 74.3509 54.8374 74.8974C55.8608 75.5097 56.717 76.3976 57.3211 77.473C57.9252 78.5485 58.2562 79.7743 58.2812 81.0288C58.1537 83.5542 56.3148 86.125 51.4785 86.125Z" fill="black"/>
<path d="M77.2113 51.834H72.0797C64.519 51.834 64.519 51.8901 64.519 44.3928V41.8675C64.5221 39.2251 65.5899 36.6918 67.4883 34.8234C69.3868 32.9549 71.9607 31.9039 74.6455 31.9009V31.9009C77.3303 31.9039 79.9042 32.9549 81.8026 34.8234C83.7011 36.6918 84.7689 39.2251 84.7719 41.8675V44.4489C84.7491 51.8901 84.7491 51.834 77.2113 51.834Z" fill="black"/>
<path d="M71.2454 39.2817C72.226 39.2817 73.021 38.4993 73.021 37.5341C73.021 36.5689 72.226 35.7865 71.2454 35.7865C70.2647 35.7865 69.4697 36.5689 69.4697 37.5341C69.4697 38.4993 70.2647 39.2817 71.2454 39.2817Z" fill="white"/>
<path opacity="0.1" d="M74.5348 46.0145C76.8168 46.0145 78.6666 44.1938 78.6666 41.9479C78.6666 39.7021 76.8168 37.8814 74.5348 37.8814C72.2529 37.8814 70.4031 39.7021 70.4031 41.9479C70.4031 44.1938 72.2529 46.0145 74.5348 46.0145Z" fill="white"/>
<path d="M29.7838 51.834H24.6522C17.0916 51.834 17.0916 51.8901 17.0916 44.3928V41.8675C17.0946 39.2251 18.1624 36.6918 20.0609 34.8234C21.9593 32.9549 24.5332 31.9039 27.218 31.9009V31.9009C29.9028 31.9039 32.4767 32.9549 34.3751 34.8234C36.2736 36.6918 37.3414 39.2251 37.3444 41.8675V44.4489C37.3216 51.8901 37.3216 51.834 29.7838 51.834Z" fill="black"/>
<path d="M23.8993 39.2953C24.8818 39.2953 25.6783 38.5114 25.6783 37.5445C25.6783 36.5775 24.8818 35.7936 23.8993 35.7936C22.9168 35.7936 22.1204 36.5775 22.1204 37.5445C22.1204 38.5114 22.9168 39.2953 23.8993 39.2953Z" fill="white"/>
<path opacity="0.1" d="M27.1949 46.0407C29.4811 46.0407 31.3345 44.2167 31.3345 41.9666C31.3345 39.7165 29.4811 37.8924 27.1949 37.8924C24.9087 37.8924 23.0554 39.7165 23.0554 41.9666C23.0554 44.2167 24.9087 46.0407 27.1949 46.0407Z" fill="white"/>
<defs>
<filter id="filter0_i_49_1718" x="0.299561" y="0.125244" width="99.7493" height="99.7495" filterUnits="userSpaceOnUse" color-interpolation-filters="sRGB">
<feFlood flood-opacity="0" result="BackgroundImageFix"/>
<feBlend mode="normal" in="SourceGraphic" in2="BackgroundImageFix" result="shape"/>
<feColorMatrix in="SourceAlpha" type="matrix" values="0 0 0 0 0 0 0 0 0 0 0 0 0 0 0 0 0 0 127 0" result="hardAlpha"/>
<feOffset dx="-6" dy="-6"/>
<feComposite in2="hardAlpha" operator="arithmetic" k2="-1" k3="1"/>
<feColorMatrix type="matrix" values="0 0 0 0 0 0 0 0 0 0 0 0 0 0 0 0 0 0 0.04 0"/>
<feBlend mode="normal" in2="shape" result="effect1_innerShadow_49_1718"/>
</filter>
</defs>
</svg>
