<svg width="346" height="83" viewBox="0 0 346 83" fill="none" xmlns="http://www.w3.org/2000/svg">
<path d="M344.517 66.08C344.753 66.2239 344.827 66.5316 344.683 66.7673L342.339 70.6087C342.196 70.8444 341.888 70.9189 341.652 70.7751C341.417 70.6312 341.342 70.3235 341.486 70.0878L343.569 66.6733L340.155 64.5898C339.919 64.446 339.845 64.1383 339.988 63.9025C340.132 63.6668 340.44 63.5923 340.676 63.7362L344.517 66.08ZM1.38821 0.58867C4.19412 2.52914 7.02762 4.47736 9.89219 6.4277L9.3294 7.2543C6.46235 5.30227 3.62679 3.35263 0.819417 1.41115L1.38821 0.58867ZM26.215 17.2921C31.908 20.9808 37.7362 24.6387 43.7234 28.2268L43.2093 29.0846C37.2106 25.4895 31.3724 21.8253 25.6713 18.1314L26.215 17.2921ZM60.7426 37.9621C66.6967 41.1994 72.812 44.3421 79.1084 47.3571L78.6765 48.2591C72.3635 45.236 66.2328 42.0855 60.2649 38.8406L60.7426 37.9621ZM97.0002 55.3449C103.245 57.9303 109.667 60.3761 116.281 62.6551L115.955 63.6005C109.321 61.3147 102.881 58.8616 96.6177 56.2689L97.0002 55.3449ZM134.994 68.488C141.484 70.3004 148.154 71.9468 155.016 73.4053L154.808 74.3834C147.925 72.9206 141.235 71.2691 134.725 69.4512L134.994 68.488ZM174.27 76.9077C180.916 77.9172 187.735 78.7506 194.737 79.3907L194.646 80.3866C187.624 79.7446 180.785 78.9088 174.12 77.8964L174.27 76.9077ZM214.331 80.6459C221.028 80.8957 227.886 80.9719 234.912 80.8615L234.928 81.8613C227.884 81.9721 221.009 81.8957 214.293 81.6452L214.331 80.6459ZM254.532 80.0855C261.221 79.6652 268.056 79.0799 275.042 78.3198L275.15 79.314C268.149 80.0756 261.299 80.6622 254.595 81.0835L254.532 80.0855ZM294.509 75.8013C301.156 74.8074 307.935 73.6598 314.85 72.3508L315.036 73.3333C308.109 74.6447 301.317 75.7945 294.657 76.7903L294.509 75.8013ZM334.021 68.3816C337.363 67.6315 340.735 66.8449 344.139 66.0209L344.374 66.9928C340.965 67.8181 337.587 68.606 334.24 69.3573L334.021 68.3816ZM344.777 65.6532C345.249 65.9409 345.398 66.5563 345.11 67.0277L340.422 74.7105C340.135 75.1819 339.519 75.3309 339.048 75.0433C338.576 74.7556 338.427 74.1402 338.715 73.6688L342.882 66.8396L336.053 62.6727C335.581 62.3851 335.432 61.7697 335.72 61.2982C336.008 60.8268 336.623 60.6778 337.095 60.9655L344.777 65.6532ZM1.67261 0.177431C4.47778 2.11739 7.31025 4.0649 10.1736 6.0144L9.04801 7.6676C6.17972 5.71473 3.34313 3.76438 0.535018 1.82239L1.67261 0.177431ZM26.4869 16.8725C32.1758 20.5585 37.999 24.2133 43.9804 27.798L42.9523 29.5135C36.9478 25.9149 31.1046 22.2476 25.3994 18.551L26.4869 16.8725ZM60.9814 37.5228C66.9286 40.7564 73.0363 43.8951 79.3243 46.9062L78.4605 48.71C72.1392 45.683 66.0009 42.5285 60.0261 39.2799L60.9814 37.5228ZM97.1914 54.8829C103.428 57.4646 109.84 59.9068 116.443 62.1823L115.792 64.0732C109.148 61.784 102.699 59.3273 96.4264 56.7309L97.1914 54.8829ZM135.128 68.0065C141.609 69.8161 148.268 71.46 155.12 72.9162L154.704 74.8725C147.811 73.4074 141.11 71.7535 134.59 69.9328L135.128 68.0065ZM174.345 76.4134C180.981 77.4213 187.79 78.2535 194.783 78.8928L194.601 80.8845C187.568 80.2416 180.72 79.4046 174.045 78.3907L174.345 76.4134ZM214.349 80.1462C221.038 80.3957 227.887 80.4718 234.904 80.3615L234.936 82.3613C227.883 82.4721 220.999 82.3957 214.275 82.1448L214.349 80.1462ZM254.501 79.5865C261.182 79.1666 268.009 78.582 274.988 77.8228L275.204 79.811C268.196 80.5735 261.338 81.1607 254.626 81.5826L254.501 79.5865ZM294.435 75.3068C301.076 74.3139 307.849 73.1673 314.757 71.8595L315.129 73.8246C308.196 75.1371 301.398 76.288 294.731 77.2848L294.435 75.3068ZM333.911 67.8937C337.251 67.1443 340.621 66.3583 344.021 65.5349L344.492 67.4788C341.08 68.3047 337.7 69.0933 334.349 69.8452L333.911 67.8937Z" fill="white"/>
</svg>
