<svg width="101" height="100" viewBox="0 0 101 100" fill="none" xmlns="http://www.w3.org/2000/svg">
<g filter="url(#filter0_i_49_1479)">
<path d="M100.174 23.6278V76.3378C100.177 79.4441 99.5681 82.5205 98.3814 85.3912C97.1948 88.2619 95.454 90.8706 93.2586 93.0681C91.0632 95.2656 88.4562 97.0089 85.5867 98.1984C82.7171 99.3878 79.6413 100 76.535 100H23.8251C17.5554 99.9969 11.5433 97.5058 7.10887 93.0735C2.67448 88.6413 0.180399 82.6303 0.174328 76.3607V23.6507C0.171315 20.545 0.780623 17.4691 1.9674 14.5991C3.15418 11.729 4.89514 9.1211 7.0907 6.92448C9.28626 4.72785 11.8933 2.98563 14.7628 1.79746C17.6323 0.609294 20.7079 -0.00150486 23.8136 2.78419e-06H76.5236C79.6279 -0.00150236 82.7022 0.608455 85.5708 1.79505C88.4394 2.98164 91.0462 4.72164 93.2424 6.91568C95.4386 9.10973 97.1811 11.7149 98.3705 14.5823C99.5599 17.4498 100.173 20.5235 100.174 23.6278V23.6278Z" fill="#FCBC34"/>
</g>
<g style="mix-blend-mode:soft-light" opacity="0.4">
<path d="M50.4113 38.9804L47.6841 53.3152L50.4113 55.4924V38.9804Z" fill="black"/>
</g>
<g clip-path="url(#clip0_49_1479)">
<path fill-rule="evenodd" clip-rule="evenodd" d="M23.6345 85.9727C23.6345 48.4727 78.322 48.4727 78.322 85.9727H23.6345Z" fill="#2B1607"/>
<path fill-rule="evenodd" clip-rule="evenodd" d="M32.2979 66.2003C41.5684 55.743 59.6014 55.8243 69.7978 66.2003H32.2979Z" fill="white"/>
<path d="M24.4054 80.3117H77.5031C77.7531 82.1217 77.8669 83.9506 77.8434 85.7805H23.9403C23.9349 83.9458 24.0906 82.1147 24.4054 80.3117Z" fill="white"/>
<path d="M78.2752 86.7186H23.6346C23.4214 86.7186 23.2169 86.6338 23.0661 86.4828C22.9153 86.3318 22.8306 86.1271 22.8306 85.9135C22.8306 66.103 37.4052 57.0312 50.9606 57.0312C64.516 57.0312 79.0793 66.103 79.0793 85.8795C79.0855 85.9885 79.0692 86.0975 79.0315 86.1999C78.9937 86.3023 78.9353 86.3958 78.8598 86.4745C78.7844 86.5533 78.6935 86.6156 78.5929 86.6576C78.4923 86.6996 78.3842 86.7204 78.2752 86.7186ZM24.45 85.1084H77.4146C77.2447 77.0345 74.3909 70.2647 69.1477 65.4793C64.1294 61.0153 57.6272 58.5888 50.9153 58.6755C38.3678 58.6869 24.8463 66.9648 24.45 85.1084Z" fill="black"/>
</g>
<path d="M64.7837 40.625C64.65 40.6236 64.5175 40.6004 64.391 40.5563C64.2242 40.5041 64.0692 40.4188 63.9349 40.3053C63.8006 40.1918 63.6896 40.0523 63.6083 39.8949C63.5269 39.7375 63.4769 39.5652 63.4611 39.3881C63.4452 39.2109 63.4638 39.0322 63.5158 38.8624C64.1513 36.6417 65.483 34.6948 67.3068 33.32C69.1307 31.9452 71.3462 31.2185 73.6137 31.251C75.8786 31.2298 78.0887 31.961 79.9104 33.334C81.732 34.7071 83.0663 36.6476 83.7116 38.8624C83.8131 39.2069 83.7768 39.5784 83.6108 39.8958C83.4447 40.2132 83.1623 40.4506 82.8252 40.5563C82.6588 40.611 82.4833 40.6312 82.3091 40.6157C82.1349 40.6003 81.9655 40.5495 81.8108 40.4663C81.6561 40.3832 81.5193 40.2693 81.4083 40.1315C81.2974 39.9936 81.2145 39.8345 81.1646 39.6636C80.6781 37.9985 79.6741 36.5398 78.304 35.5076C76.9339 34.4754 75.272 33.9254 73.5688 33.9408C71.8733 33.9354 70.2216 34.4899 68.8606 35.5214C67.4995 36.5529 66.5023 38.006 66.0179 39.6636C65.9346 39.9342 65.7713 40.1719 65.5503 40.3441C65.3293 40.5162 65.0615 40.6144 64.7837 40.625Z" fill="black"/>
<path d="M17.1373 40.625C17.0035 40.6261 16.8705 40.6029 16.7447 40.5563C16.577 40.5053 16.4209 40.4208 16.2854 40.3078C16.1499 40.1948 16.0377 40.0555 15.9552 39.898C15.8728 39.7404 15.8219 39.5678 15.8053 39.39C15.7887 39.2122 15.8068 39.0329 15.8586 38.8623C16.4972 36.6435 17.8293 34.6987 19.6519 33.3245C21.4746 31.9503 23.6876 31.222 25.9536 31.2508C28.2188 31.2258 30.43 31.9555 32.2519 33.3292C34.0738 34.7029 35.4068 36.6455 36.0487 38.8623C36.1022 39.0321 36.122 39.2111 36.1069 39.3888C36.0917 39.5665 36.0419 39.7393 35.9604 39.8971C35.8789 40.0549 35.7674 40.1945 35.6323 40.3077C35.4972 40.4209 35.3413 40.5054 35.1738 40.5563C34.8361 40.6638 34.4704 40.6302 34.1571 40.4628C33.8437 40.2954 33.6083 40.0079 33.5025 39.6635C33.0166 38.0003 32.0145 36.543 30.6471 35.5109C29.2796 34.4788 27.6208 33.9278 25.92 33.9406C24.223 33.9327 22.5692 34.4861 21.2063 35.5178C19.8434 36.5495 18.8448 38.004 18.3599 39.6635C18.2788 39.9332 18.1176 40.1706 17.8986 40.3429C17.6796 40.5151 17.4136 40.6137 17.1373 40.625Z" fill="black"/>
<path d="M16.085 56.6644C15.8862 57.3168 15.5604 57.9235 15.1264 58.4496C14.6924 58.9758 14.1587 59.4111 13.5561 59.7305C12.9534 60.0499 12.2935 60.2471 11.6144 60.3109C10.9353 60.3746 10.2503 60.3036 9.59869 60.102C8.33283 59.5683 7.33014 58.5546 6.81031 57.2831C6.29048 56.0116 6.2959 54.586 6.82537 53.3184C8.18911 49.5485 11.8219 48.9183 15.6037 43.5786C14.813 49.8808 17.5978 52.5507 16.085 56.6644Z" fill="#4ABCF4"/>
<path d="M83.0917 56.6644C83.2831 57.316 83.6066 57.9213 84.042 58.4425C84.4774 58.9638 85.0154 59.3899 85.6226 59.6943C86.2298 59.9987 86.8931 60.175 87.5713 60.212C88.2495 60.2491 88.9281 60.1463 89.5649 59.9099C90.2017 59.6735 90.783 59.3086 91.2726 58.838C91.7623 58.3673 92.1499 57.8009 92.4112 57.1741C92.6726 56.5472 92.8022 55.8733 92.7919 55.1942C92.7815 54.5151 92.6316 53.8454 92.3513 53.2268C90.9876 49.5142 87.3548 48.8839 83.5386 43.5442C84.3637 49.8808 81.5789 52.5507 83.0917 56.6644Z" fill="#4ABCF4"/>
<defs>
<filter id="filter0_i_49_1479" x="0.174316" y="0" width="100" height="100" filterUnits="userSpaceOnUse" color-interpolation-filters="sRGB">
<feFlood flood-opacity="0" result="BackgroundImageFix"/>
<feBlend mode="normal" in="SourceGraphic" in2="BackgroundImageFix" result="shape"/>
<feColorMatrix in="SourceAlpha" type="matrix" values="0 0 0 0 0 0 0 0 0 0 0 0 0 0 0 0 0 0 127 0" result="hardAlpha"/>
<feOffset dx="-6" dy="-6"/>
<feComposite in2="hardAlpha" operator="arithmetic" k2="-1" k3="1"/>
<feColorMatrix type="matrix" values="0 0 0 0 0 0 0 0 0 0 0 0 0 0 0 0 0 0 0.04 0"/>
<feBlend mode="normal" in2="shape" result="effect1_innerShadow_49_1479"/>
</filter>
<clipPath id="clip0_49_1479">
<rect width="62.5" height="39.0625" fill="white" transform="translate(18.9243 57.0312)"/>
</clipPath>
</defs>
</svg>
