<svg width="101" height="100" viewBox="0 0 101 100" fill="none" xmlns="http://www.w3.org/2000/svg">
<g filter="url(#filter0_i_49_1522)">
<path d="M100.174 23.6278V76.3378C100.177 79.4441 99.5681 82.5205 98.3814 85.3912C97.1948 88.2619 95.454 90.8706 93.2586 93.0681C91.0632 95.2656 88.4562 97.009 85.5867 98.1984C82.7171 99.3878 79.6413 100 76.535 100H23.8251C17.5554 99.997 11.5433 97.5058 7.10887 93.0736C2.67448 88.6413 0.180399 82.6304 0.174328 76.3607V23.6507C0.171315 20.545 0.780623 17.4691 1.9674 14.5991C3.15418 11.729 4.89514 9.1211 7.0907 6.92448C9.28625 4.72785 11.8933 2.98563 14.7628 1.79746C17.6323 0.609294 20.7079 -0.00150486 23.8136 2.78419e-06H76.5236C79.6279 -0.00150236 82.7022 0.608455 85.5708 1.79505C88.4394 2.98164 91.0462 4.72164 93.2424 6.91568C95.4386 9.10973 97.1811 11.7149 98.3705 14.5823C99.5599 17.4498 100.173 20.5235 100.174 23.6278Z" fill="#FCBC34"/>
</g>
<g style="mix-blend-mode:soft-light" opacity="0.4">
<path d="M50.4113 38.9804L47.6841 53.3152L50.4113 55.4924V38.9804Z" fill="black"/>
</g>
<path d="M50.4028 85.9375C50.135 85.9375 49.8782 85.8236 49.6888 85.621C49.4995 85.4183 49.3931 85.1434 49.3931 84.8568C49.3931 84.5702 49.4995 84.2953 49.6888 84.0927C49.8782 83.89 50.135 83.7762 50.4028 83.7762C53.3471 83.7762 55.0797 82.7069 55.1648 80.8527C55.2498 78.7255 53.1983 76.1319 50.3072 75.8361C50.0515 75.8046 49.8171 75.6687 49.6528 75.4568C49.4885 75.2449 49.4068 74.9733 49.425 74.6986C49.441 74.4312 49.5447 74.1786 49.7178 73.985C49.8908 73.7915 50.1221 73.6695 50.371 73.6406C53.2302 73.4472 55.1435 71.1039 55.0903 69.0904C55.0903 67.2931 53.294 66.2238 50.4347 66.2238C50.2221 66.149 50.0369 66.0043 49.9056 65.8102C49.7744 65.6162 49.7037 65.3827 49.7037 65.1432C49.7037 64.9036 49.7744 64.6702 49.9056 64.4761C50.0369 64.282 50.2221 64.1373 50.4347 64.0625C55.2498 64.0625 57.0355 66.622 57.1099 69.0222C57.0716 70.2024 56.7416 71.3507 56.1534 72.3499C55.5652 73.3491 54.7399 74.1634 53.7617 74.7099C54.7852 75.3222 55.6414 76.2101 56.2454 77.2855C56.8495 78.361 57.1805 79.5868 57.2056 80.8413C57.078 83.3667 55.2392 85.9375 50.4028 85.9375Z" fill="black"/>
<g clip-path="url(#clip0_49_1522)">
<path d="M65.5649 46.875C65.4313 46.8736 65.2987 46.8504 65.1722 46.8063C65.0055 46.7541 64.8505 46.6688 64.7162 46.5553C64.5819 46.4418 64.4708 46.3023 64.3895 46.1449C64.3082 45.9875 64.2582 45.8152 64.2423 45.6381C64.2264 45.4609 64.2451 45.2822 64.2971 45.1124C64.9325 42.8917 66.2642 40.9448 68.0881 39.57C69.912 38.1952 72.1274 37.4685 74.3949 37.501C76.6598 37.4798 78.87 38.211 80.6916 39.584C82.5133 40.9571 83.8475 42.8976 84.4928 45.1124C84.5943 45.4569 84.5581 45.8284 84.392 46.1458C84.2259 46.4632 83.9435 46.7006 83.6064 46.8063C83.44 46.861 83.2645 46.8812 83.0903 46.8657C82.9161 46.8503 82.7467 46.7995 82.5921 46.7163C82.4374 46.6332 82.3005 46.5193 82.1896 46.3815C82.0786 46.2436 81.9958 46.0845 81.9459 45.9136C81.4593 44.2485 80.4553 42.7898 79.0852 41.7576C77.7151 40.7254 76.0532 40.1754 74.3501 40.1908C72.6545 40.1854 71.0028 40.7399 69.6418 41.7714C68.2808 42.8029 67.2835 44.256 66.7991 45.9136C66.7159 46.1842 66.5526 46.4219 66.3316 46.5941C66.1106 46.7662 65.8428 46.8644 65.5649 46.875Z" fill="black"/>
<path d="M17.9186 46.875C17.7847 46.8761 17.6518 46.8529 17.526 46.8063C17.3583 46.7553 17.2021 46.6708 17.0666 46.5578C16.9311 46.4448 16.8189 46.3055 16.7365 46.148C16.6541 45.9904 16.6031 45.8178 16.5865 45.64C16.5699 45.4622 16.5881 45.2829 16.6398 45.1123C17.2784 42.8935 18.6106 40.9487 20.4332 39.5745C22.2558 38.2003 24.4689 37.472 26.7349 37.5008C29 37.4758 31.2113 38.2055 33.0332 39.5792C34.855 40.9529 36.188 42.8955 36.8299 45.1123C36.8835 45.2821 36.9033 45.4611 36.8881 45.6388C36.873 45.8165 36.8232 45.9893 36.7417 46.1471C36.6602 46.3049 36.5486 46.4445 36.4135 46.5577C36.2784 46.6709 36.1225 46.7554 35.955 46.8063C35.6174 46.9138 35.2517 46.8802 34.9383 46.7128C34.625 46.5454 34.3895 46.2579 34.2837 45.9135C33.7978 44.2503 32.7958 42.793 31.4283 41.7609C30.0609 40.7288 28.402 40.1778 26.7012 40.1906C25.0043 40.1827 23.3505 40.7361 21.9876 41.7678C20.6247 42.7995 19.626 44.254 19.1412 45.9135C19.0601 46.1832 18.8989 46.4206 18.6799 46.5929C18.4609 46.7651 18.1948 46.8637 17.9186 46.875Z" fill="black"/>
</g>
<g clip-path="url(#clip1_49_1522)">
<path d="M91.2876 62.5977C89.6041 62.5977 87.9895 63.2278 86.7991 64.3496C85.6087 65.4713 84.9399 66.9927 84.9399 68.5791C84.9399 68.8964 84.8062 69.2007 84.5681 69.425C84.33 69.6494 84.0071 69.7754 83.6704 69.7754C83.3337 69.7754 83.0108 69.6494 82.7727 69.425C82.5346 69.2007 82.4009 68.8964 82.4009 68.5791C82.4009 66.9229 82.9221 65.3038 83.8986 63.9267C84.875 62.5496 86.263 61.4763 87.8868 60.8425C89.5106 60.2087 91.2975 60.0429 93.0213 60.366C94.7452 60.6891 96.3286 61.4866 97.5714 62.6578C98.8143 63.8289 99.6607 65.321 100.004 66.9454C100.346 68.5698 100.17 70.2536 99.4978 71.7837C98.8252 73.3139 97.6862 74.6217 96.2248 75.5419C94.7634 76.462 93.0452 76.9531 91.2876 76.9531H60.8188C60.4821 76.9531 60.1592 76.8271 59.9212 76.6027C59.6831 76.3784 59.5493 76.0741 59.5493 75.7568C59.5493 75.4396 59.6831 75.1353 59.9212 74.9109C60.1592 74.6866 60.4821 74.5606 60.8188 74.5606H91.2876C92.9711 74.5606 94.5856 73.9304 95.7761 72.8086C96.9665 71.6869 97.6352 70.1655 97.6352 68.5791C97.6352 66.9927 96.9665 65.4713 95.7761 64.3496C94.5856 63.2278 92.9711 62.5977 91.2876 62.5977ZM73.5142 64.9902C72.8408 64.9902 72.1949 65.2423 71.7188 65.691C71.2426 66.1397 70.9751 66.7483 70.9751 67.3828C70.9751 67.7001 70.8413 68.0044 70.6033 68.2287C70.3652 68.4531 70.0423 68.5791 69.7056 68.5791C69.3689 68.5791 69.046 68.4531 68.8079 68.2287C68.5698 68.0044 68.436 67.7001 68.436 67.3828C68.436 66.4364 68.7339 65.5112 69.2919 64.7243C69.8498 63.9374 70.6429 63.3241 71.5708 62.9619C72.4987 62.5997 73.5198 62.505 74.5049 62.6896C75.4899 62.8742 76.3947 63.33 77.1049 63.9992C77.8151 64.6684 78.2988 65.521 78.4947 66.4493C78.6906 67.3775 78.5901 68.3396 78.2057 69.214C77.8214 70.0884 77.1705 70.8357 76.3354 71.3615C75.5003 71.8873 74.5185 72.168 73.5142 72.168H60.8188C60.4821 72.168 60.1592 72.0419 59.9212 71.8176C59.6831 71.5932 59.5493 71.289 59.5493 70.9717C59.5493 70.6544 59.6831 70.3501 59.9212 70.1258C60.1592 69.9014 60.4821 69.7754 60.8188 69.7754H73.5142C74.1876 69.7754 74.8334 69.5233 75.3095 69.0746C75.7857 68.6259 76.0532 68.0174 76.0532 67.3828C76.0532 66.7483 75.7857 66.1397 75.3095 65.691C74.8334 65.2423 74.1876 64.9902 73.5142 64.9902ZM59.5493 80.542C59.5493 80.2247 59.6831 79.9204 59.9212 79.6961C60.1592 79.4717 60.4821 79.3457 60.8188 79.3457H86.3161C87.8226 79.3457 89.2954 79.7667 90.548 80.5554C91.8006 81.3441 92.7769 82.4651 93.3535 83.7766C93.93 85.0882 94.0808 86.5314 93.7869 87.9237C93.493 89.3161 92.7676 90.595 91.7023 91.5989C90.637 92.6027 89.2797 93.2863 87.8021 93.5633C86.3246 93.8402 84.793 93.6981 83.4011 93.1548C82.0093 92.6115 80.8196 91.6916 79.9826 90.5112C79.1457 89.3308 78.6989 87.9431 78.6989 86.5234C78.6989 86.2062 78.8327 85.9019 79.0708 85.6775C79.3088 85.4532 79.6318 85.3272 79.9685 85.3272C80.3052 85.3272 80.6281 85.4532 80.8661 85.6775C81.1042 85.9019 81.238 86.2062 81.238 86.5234C81.238 87.4699 81.5358 88.395 82.0938 89.1819C82.6518 89.9688 83.4449 90.5822 84.3728 90.9444C85.3007 91.3065 86.3217 91.4013 87.3068 91.2167C88.2919 91.032 89.1967 90.5763 89.9069 89.9071C90.6171 89.2378 91.1007 88.3852 91.2967 87.457C91.4926 86.5287 91.392 85.5666 91.0077 84.6922C90.6233 83.8179 89.9725 83.0705 89.1374 82.5447C88.3023 82.0189 87.3205 81.7383 86.3161 81.7383H60.8188C60.4821 81.7383 60.1592 81.6122 59.9212 81.3879C59.6831 81.1636 59.5493 80.8593 59.5493 80.542Z" fill="#4F7AA0"/>
</g>
<defs>
<filter id="filter0_i_49_1522" x="0.174316" y="0" width="100" height="100" filterUnits="userSpaceOnUse" color-interpolation-filters="sRGB">
<feFlood flood-opacity="0" result="BackgroundImageFix"/>
<feBlend mode="normal" in="SourceGraphic" in2="BackgroundImageFix" result="shape"/>
<feColorMatrix in="SourceAlpha" type="matrix" values="0 0 0 0 0 0 0 0 0 0 0 0 0 0 0 0 0 0 127 0" result="hardAlpha"/>
<feOffset dx="-6" dy="-6"/>
<feComposite in2="hardAlpha" operator="arithmetic" k2="-1" k3="1"/>
<feColorMatrix type="matrix" values="0 0 0 0 0 0 0 0 0 0 0 0 0 0 0 0 0 0 0.04 0"/>
<feBlend mode="normal" in2="shape" result="effect1_innerShadow_49_1522"/>
</filter>
<clipPath id="clip0_49_1522">
<rect width="68.3282" height="23.4101" fill="white" transform="translate(16.5806 32.0312)"/>
</clipPath>
<clipPath id="clip1_49_1522">
<rect width="40.625" height="38.2812" fill="white" transform="translate(59.5493 57.8125)"/>
</clipPath>
</defs>
</svg>
