<svg width="104" height="100" viewBox="0 0 104 100" fill="none" xmlns="http://www.w3.org/2000/svg">
<g filter="url(#filter0_i_49_1443)">
<path d="M100 23.6278V76.3378C100.003 79.4441 99.3938 82.5205 98.2071 85.3912C97.0205 88.2619 95.2797 90.8706 93.0843 93.0681C90.8889 95.2657 88.2819 97.009 85.4124 98.1984C82.5428 99.3878 79.467 100 76.3607 100H23.6507C17.3811 99.997 11.3689 97.5058 6.93455 93.0736C2.50016 88.6413 0.00608268 82.6304 1.11179e-05 76.3607V23.6507C-0.00300161 20.545 0.606307 17.4691 1.79308 14.5991C2.97986 11.729 4.72082 9.1211 6.91638 6.92448C9.11194 4.72785 11.719 2.98563 14.5885 1.79746C17.458 0.609294 20.5335 -0.00150486 23.6393 2.78419e-06H76.3493C79.4536 -0.00150236 82.5279 0.608455 85.3965 1.79505C88.2651 2.98164 90.8719 4.72164 93.0681 6.91568C95.2643 9.10973 97.0068 11.7149 98.1962 14.5823C99.3855 17.4498 99.9985 20.5235 100 23.6278V23.6278Z" fill="#FCBC34"/>
</g>
<g style="mix-blend-mode:soft-light" opacity="0.4">
<path d="M50.2369 38.9804L47.5098 53.3152L50.2369 55.4924V38.9804Z" fill="black"/>
</g>
<path d="M74.1103 49.5865C71.9741 49.6112 69.8884 48.9413 68.1702 47.6789C66.4521 46.4165 65.1956 44.6305 64.592 42.5927C64.5314 42.4329 64.5043 42.2624 64.5124 42.0917C64.5205 41.921 64.5637 41.7539 64.6393 41.6004C64.7148 41.447 64.8212 41.3106 64.9518 41.1996C65.0824 41.0886 65.2345 41.0053 65.3987 40.955C65.5628 40.9046 65.7356 40.8883 65.9064 40.9068C66.0772 40.9254 66.2423 40.9786 66.3917 41.063C66.541 41.1475 66.6714 41.2615 66.7748 41.3979C66.8781 41.5344 66.9523 41.6905 66.9927 41.8565C67.4391 43.3876 68.3779 44.7309 69.6653 45.6807C70.9528 46.6305 72.5179 47.1343 74.1209 47.115C75.7245 47.1268 77.2886 46.6204 78.5779 45.6721C79.8672 44.7238 80.812 43.3848 81.2701 41.8565C81.3832 41.5584 81.6063 41.3145 81.8941 41.1744C82.1818 41.0342 82.5124 41.0085 82.8185 41.1023C83.1246 41.1962 83.3833 41.4027 83.5416 41.6796C83.7 41.9565 83.7462 42.2831 83.6709 42.5927C83.0637 44.6366 81.8005 46.4267 80.0741 47.6896C78.3478 48.9524 76.2532 49.6186 74.1103 49.5865Z" fill="black"/>
<path d="M28.3342 49.6052C26.1955 49.6282 24.1076 48.9547 22.3874 47.6867C20.6672 46.4188 19.4086 44.6256 18.8025 42.5794C18.7497 42.4206 18.7289 42.2529 18.7413 42.086C18.7537 41.9191 18.7992 41.7563 18.875 41.607C18.9508 41.4577 19.0555 41.3249 19.183 41.2161C19.3105 41.1074 19.4584 41.0249 19.618 40.9735C19.7758 40.9247 19.9418 40.9077 20.1063 40.9233C20.2708 40.9389 20.4305 40.9869 20.5763 41.0645C20.7221 41.1422 20.851 41.2478 20.9555 41.3755C21.0601 41.5031 21.1382 41.6502 21.1854 41.8081C21.6432 43.3399 22.5861 44.6825 23.873 45.6348C25.1598 46.5872 26.7213 47.0979 28.3236 47.0907C29.9313 47.1048 31.5 46.5972 32.7932 45.6444C34.0865 44.6916 35.0342 43.3452 35.4935 41.8081C35.6068 41.5087 35.8302 41.2636 36.1183 41.1229C36.4064 40.9821 36.7375 40.9562 37.0441 41.0505C37.3506 41.1448 37.6096 41.3522 37.7682 41.6304C37.9268 41.9086 37.9731 42.2366 37.8976 42.5477C37.2928 44.6033 36.031 46.4053 34.3046 47.6794C32.5781 48.9534 30.4815 49.6297 28.3342 49.6052Z" fill="black"/>
<path d="M60.6921 24.4195L65.0064 16.5778L60.1057 17.5555C59.8303 17.6314 59.5361 17.6058 59.2785 17.4834C59.1793 17.4272 59.0941 17.35 59.0289 17.2574C58.9637 17.1649 58.9202 17.0593 58.9015 16.9483C58.8736 16.8361 58.8704 16.7193 58.8921 16.6057C58.9138 16.4921 58.9598 16.3844 59.0272 16.2897C59.2105 16.0707 59.4734 15.9304 59.7602 15.8986L66.0431 14.6329C66.8598 14.4682 67.352 14.7563 67.4986 15.5076C67.5844 15.8001 67.5844 16.1104 67.4986 16.4029C67.3211 16.816 67.1183 17.218 66.8912 17.6069L62.8493 24.9135L68.7237 23.73C68.9974 23.6539 69.2893 23.6721 69.551 23.7815C69.6514 23.8388 69.7374 23.9176 69.8026 24.012C69.8679 24.1064 69.9107 24.214 69.928 24.3269C69.9563 24.4425 69.9597 24.5626 69.9381 24.6795C69.9164 24.7965 69.8702 24.9077 69.8023 25.0061C69.6133 25.2165 69.3527 25.3519 69.0693 25.3869L61.8649 26.8379C61.474 26.9423 61.058 26.9058 60.6921 26.735C60.5456 26.6516 60.4198 26.5372 60.3238 26.4002C60.2278 26.2631 60.1641 26.1068 60.1372 25.9426C60.1156 25.8234 60.1156 25.7015 60.1372 25.5824C60.1561 25.4716 60.1913 25.3641 60.2419 25.2634C60.2419 25.1502 60.3571 25.0164 60.4513 24.8517L60.6921 24.4195Z" fill="black"/>
<path d="M70.9698 17.1576L77.5991 8.14268L71.3573 8.585C71.0052 8.63473 70.6465 8.56005 70.3456 8.37437C70.2302 8.28882 70.1355 8.17927 70.0685 8.05362C70.0016 7.92796 69.9639 7.78933 69.9582 7.64771C69.9415 7.50235 69.958 7.35519 70.0064 7.21679C70.0547 7.0784 70.1339 6.95222 70.238 6.84732C70.4996 6.61249 70.8409 6.48112 71.1958 6.47872L79.2457 5.91002C80.3219 5.82577 80.8384 6.26809 80.9138 7.21592C80.9463 7.57652 80.8833 7.93923 80.7308 8.26906C80.4453 8.77064 80.1253 9.25269 79.773 9.71186L73.5742 18.137L81.1075 17.5999C81.4583 17.547 81.8168 17.618 82.1191 17.8C82.2349 17.8845 82.3292 17.994 82.3945 18.1201C82.4598 18.2462 82.4945 18.3853 82.4957 18.5267C82.5126 18.672 82.4983 18.8191 82.4538 18.9587C82.4094 19.0983 82.3357 19.2274 82.2375 19.3376C81.9688 19.5747 81.6199 19.706 81.2581 19.7062L72.0783 20.3591C71.5777 20.4307 71.0677 20.3182 70.647 20.0432C70.4778 19.9211 70.3393 19.7627 70.2423 19.5801C70.1453 19.3976 70.0923 19.1957 70.0874 18.99C70.0599 18.8438 70.0599 18.6939 70.0874 18.5477C70.1329 18.4147 70.1943 18.2875 70.2703 18.1686C70.3421 18.0422 70.4497 17.8842 70.5932 17.6947L70.9698 17.1576Z" fill="black"/>
<path d="M85.9296 17.4808L98.2848 7.63851L89.6974 5.98053C89.2036 5.92624 88.7481 5.69279 88.42 5.32578C88.2955 5.16958 88.2078 4.98814 88.1633 4.79456C88.1187 4.60099 88.1184 4.4001 88.1623 4.20638C88.1981 4.00496 88.2769 3.81329 88.3935 3.644C88.51 3.47472 88.6617 3.33166 88.8386 3.22427C89.2849 2.99511 89.8032 2.94223 90.2877 3.07642L101.355 5.1885C102.793 5.46307 103.373 6.24454 103.115 7.57514C103.038 8.10679 102.807 8.60536 102.45 9.01135C101.882 9.55812 101.279 10.0695 100.646 10.5426L89.107 19.709L99.4012 21.6944C99.8958 21.751 100.355 21.975 100.7 22.328C100.824 22.4867 100.91 22.6703 100.952 22.8657C100.995 23.0611 100.993 23.2634 100.947 23.458C100.921 23.6723 100.847 23.8782 100.73 24.0608C100.613 24.2434 100.456 24.3982 100.271 24.514C99.8216 24.7346 99.3052 24.7835 98.8216 24.6513L86.1872 22.1696C85.4837 22.0829 84.8356 21.7492 84.3624 21.2297C84.1897 20.9949 84.0714 20.7257 84.0158 20.4411C83.9602 20.1565 83.9685 19.8634 84.0403 19.5823C84.0814 19.3758 84.1615 19.1788 84.2765 19.0015C84.384 18.8306 84.514 18.6744 84.6629 18.5368C84.8132 18.3995 85.0172 18.2306 85.2855 18.0194L85.9296 17.4808Z" fill="black"/>
<path fill-rule="evenodd" clip-rule="evenodd" d="M31.9724 81.1046C36.5238 62.3944 61.5814 62.4706 66.1075 81.1046C57.599 74.2709 39.4948 74.5884 31.9724 81.1046Z" fill="#2B1607"/>
<path d="M31.6049 81.5766C31.5128 81.5768 31.4227 81.5506 31.346 81.5011C31.2514 81.4452 31.1777 81.3612 31.1357 81.2615C31.0938 81.1619 31.0858 81.0518 31.113 80.9474C33.2876 72.2896 40.3421 66.7526 49.0663 66.7526C57.8036 66.7526 64.8322 72.3651 66.9679 80.9977C66.9934 81.099 66.9859 81.2054 66.9465 81.3023C66.907 81.3993 66.8377 81.4819 66.7479 81.5388C66.6587 81.5995 66.5525 81.632 66.4437 81.632C66.3349 81.632 66.2287 81.5995 66.1395 81.5388C57.9071 75.0329 39.669 75.0329 31.9026 81.5388C31.8094 81.5797 31.7058 81.5929 31.6049 81.5766ZM48.8851 75.6244C55.0724 75.6244 61.3243 77.0212 65.6088 79.8023C64.5981 76.3075 62.4369 73.2312 59.456 71.0447C56.4752 68.8582 52.8393 67.682 49.1052 67.6964C45.3755 67.6818 41.7429 68.8513 38.7594 71.0273C35.7759 73.2032 33.6046 76.2666 32.5757 79.7519C36.5883 76.996 42.7367 75.6244 48.8851 75.6244Z" fill="black"/>
<path d="M70.4835 91.6234C70.4901 92.1896 70.3834 92.7514 70.1695 93.2769C69.9557 93.8024 69.6388 94.2813 69.2371 94.6862C68.4258 95.5039 67.318 95.9706 66.1574 95.9837C64.9967 95.9968 63.8784 95.5551 63.0483 94.7559C62.2182 93.9567 61.7445 92.8653 61.7312 91.722C61.7312 88.2732 64.4944 86.635 65.9698 81.1046C67.3077 86.4872 70.446 87.8051 70.4835 91.6234Z" fill="#4ABCF4"/>
<defs>
<filter id="filter0_i_49_1443" x="0" y="0" width="100" height="100" filterUnits="userSpaceOnUse" color-interpolation-filters="sRGB">
<feFlood flood-opacity="0" result="BackgroundImageFix"/>
<feBlend mode="normal" in="SourceGraphic" in2="BackgroundImageFix" result="shape"/>
<feColorMatrix in="SourceAlpha" type="matrix" values="0 0 0 0 0 0 0 0 0 0 0 0 0 0 0 0 0 0 127 0" result="hardAlpha"/>
<feOffset dx="-6" dy="-6"/>
<feComposite in2="hardAlpha" operator="arithmetic" k2="-1" k3="1"/>
<feColorMatrix type="matrix" values="0 0 0 0 0 0 0 0 0 0 0 0 0 0 0 0 0 0 0.04 0"/>
<feBlend mode="normal" in2="shape" result="effect1_innerShadow_49_1443"/>
</filter>
</defs>
</svg>
