<svg width="101" height="100" viewBox="0 0 101 100" fill="none" xmlns="http://www.w3.org/2000/svg">
<g filter="url(#filter0_i_49_1632)">
<path d="M100.707 23.6278V76.3378C100.71 79.4441 100.101 82.5205 98.9144 85.3912C97.7278 88.2619 95.987 90.8706 93.7916 93.0681C91.5962 95.2657 88.9892 97.009 86.1196 98.1984C83.2501 99.3878 80.1743 100 77.068 100H24.358C18.0884 99.997 12.0762 97.5058 7.64183 93.0736C3.20744 88.6413 0.713358 82.6304 0.707287 76.3607V23.6507C0.704274 20.545 1.31358 17.4691 2.50036 14.5991C3.68714 11.729 5.4281 9.1211 7.62365 6.92448C9.81921 4.72785 12.4263 2.98563 15.2958 1.79746C18.1652 0.609294 21.2408 -0.00150486 24.3466 2.78419e-06H77.0565C80.1609 -0.00150236 83.2351 0.608455 86.1038 1.79505C88.9724 2.98164 91.5792 4.72164 93.7754 6.91568C95.9716 9.10973 97.7141 11.7149 98.9034 14.5823C100.093 17.4498 100.706 20.5235 100.707 23.6278V23.6278Z" fill="#FCBC34"/>
</g>
<g style="mix-blend-mode:soft-light" opacity="0.4">
<path d="M50.9442 38.9804L48.217 53.3152L50.9442 55.4924V38.9804Z" fill="black"/>
</g>
<g style="mix-blend-mode:soft-light" filter="url(#filter1_f_49_1632)">
<path d="M30.3076 51.5625H21.8882C18.3883 51.5625 15.551 54.3607 15.551 57.8125C15.551 61.2643 18.3883 64.0625 21.8882 64.0625H30.3076C33.8075 64.0625 36.6448 61.2643 36.6448 57.8125C36.6448 54.3607 33.8075 51.5625 30.3076 51.5625Z" fill="#C140A3"/>
</g>
<g style="mix-blend-mode:soft-light" filter="url(#filter2_f_49_1632)">
<path d="M78.7575 51.5625H70.3133C66.8202 51.5625 63.9885 54.3582 63.9885 57.8069V57.8181C63.9885 61.2668 66.8202 64.0625 70.3133 64.0625H78.7575C82.2506 64.0625 85.0823 61.2668 85.0823 57.8181V57.8069C85.0823 54.3582 82.2506 51.5625 78.7575 51.5625Z" fill="#C140A3"/>
</g>
<path d="M51.3071 79.6875C38.4229 79.6875 23.9909 72.4949 22.5909 56.7445C22.5547 56.457 22.6333 56.1667 22.8094 55.9376C22.9855 55.7085 23.2447 55.5593 23.5299 55.5228C23.8152 55.4862 24.1031 55.5654 24.3305 55.7429C24.5578 55.9204 24.7058 56.1816 24.7421 56.4692C25.9941 70.9003 39.379 77.4735 51.3071 77.4735C68.1634 77.4735 76.5973 66.9082 77.4851 56.4692C77.5055 56.185 77.6367 55.9205 77.8499 55.7335C78.0632 55.5465 78.3412 55.4522 78.6233 55.4711C78.8988 55.5075 79.1516 55.6443 79.334 55.8556C79.5164 56.0669 79.6158 56.3382 79.6135 56.6183C78.3159 72.5293 64.0546 79.676 51.3298 79.6875H51.3071Z" fill="black"/>
<g clip-path="url(#clip0_49_1632)">
<path d="M65.3166 44.5312C65.183 44.5298 65.0504 44.5066 64.9239 44.4626C64.7572 44.4104 64.6022 44.325 64.4679 44.2115C64.3336 44.098 64.2226 43.9586 64.1412 43.8012C64.0599 43.6437 64.0099 43.4715 63.994 43.2943C63.9781 43.1171 63.9968 42.9385 64.0488 42.7686C64.6842 40.5479 66.0159 38.601 67.8398 37.2263C69.6637 35.8515 71.8791 35.1247 74.1467 35.1573C76.4115 35.1361 78.6217 35.8672 80.4433 37.2403C82.265 38.6134 83.5992 40.5538 84.2445 42.7686C84.346 43.1132 84.3098 43.4847 84.1437 43.802C83.9777 44.1194 83.6952 44.3569 83.3581 44.4626C83.1917 44.5172 83.0162 44.5374 82.8421 44.522C82.6679 44.5065 82.4984 44.4557 82.3438 44.3726C82.1891 44.2894 82.0522 44.1756 81.9413 44.0377C81.8303 43.8999 81.7475 43.7408 81.6976 43.5698C81.211 41.9047 80.207 40.4461 78.8369 39.4138C77.4668 38.3816 75.805 37.8317 74.1018 37.847C72.4062 37.8416 70.7545 38.3961 69.3935 39.4276C68.0325 40.4591 67.0352 41.9123 66.5508 43.5698C66.4676 43.8405 66.3043 44.0782 66.0833 44.2503C65.8623 44.4225 65.5945 44.5206 65.3166 44.5312Z" fill="black"/>
<path d="M17.6703 44.5312C17.5364 44.5324 17.4035 44.5091 17.2777 44.4625C17.11 44.4115 16.9538 44.3271 16.8183 44.2141C16.6828 44.1011 16.5706 43.9618 16.4882 43.8042C16.4058 43.6467 16.3548 43.474 16.3382 43.2963C16.3216 43.1185 16.3398 42.9391 16.3916 42.7685C17.0301 40.5498 18.3623 38.605 20.1849 37.2308C22.0075 35.8565 24.2206 35.1283 26.4866 35.1571C28.7517 35.1321 30.963 35.8618 32.7849 37.2355C34.6068 38.6091 35.9398 40.5517 36.5816 42.7685C36.6352 42.9383 36.655 43.1173 36.6398 43.295C36.6247 43.4727 36.5749 43.6456 36.4934 43.8034C36.4119 43.9612 36.3003 44.1007 36.1652 44.2139C36.0301 44.3271 35.8743 44.4117 35.7067 44.4625C35.3691 44.57 35.0034 44.5364 34.69 44.369C34.3767 44.2016 34.1412 43.9142 34.0354 43.5698C33.5495 41.9065 32.5475 40.4492 31.18 39.4172C29.8126 38.3851 28.1537 37.834 26.4529 37.8468C24.756 37.839 23.1022 38.3923 21.7393 39.4241C20.3764 40.4558 19.3777 41.9103 18.8929 43.5698C18.8118 43.8395 18.6506 44.0769 18.4316 44.2491C18.2126 44.4213 17.9465 44.5199 17.6703 44.5312Z" fill="black"/>
</g>
<defs>
<filter id="filter0_i_49_1632" x="0.707275" y="0" width="100" height="100" filterUnits="userSpaceOnUse" color-interpolation-filters="sRGB">
<feFlood flood-opacity="0" result="BackgroundImageFix"/>
<feBlend mode="normal" in="SourceGraphic" in2="BackgroundImageFix" result="shape"/>
<feColorMatrix in="SourceAlpha" type="matrix" values="0 0 0 0 0 0 0 0 0 0 0 0 0 0 0 0 0 0 127 0" result="hardAlpha"/>
<feOffset dx="-6" dy="-6"/>
<feComposite in2="hardAlpha" operator="arithmetic" k2="-1" k3="1"/>
<feColorMatrix type="matrix" values="0 0 0 0 0 0 0 0 0 0 0 0 0 0 0 0 0 0 0.04 0"/>
<feBlend mode="normal" in2="shape" result="effect1_innerShadow_49_1632"/>
</filter>
<filter id="filter1_f_49_1632" x="5.55103" y="41.5625" width="41.0938" height="32.5" filterUnits="userSpaceOnUse" color-interpolation-filters="sRGB">
<feFlood flood-opacity="0" result="BackgroundImageFix"/>
<feBlend mode="normal" in="SourceGraphic" in2="BackgroundImageFix" result="shape"/>
<feGaussianBlur stdDeviation="5" result="effect1_foregroundBlur_49_1632"/>
</filter>
<filter id="filter2_f_49_1632" x="53.9885" y="41.5625" width="41.0938" height="32.5" filterUnits="userSpaceOnUse" color-interpolation-filters="sRGB">
<feFlood flood-opacity="0" result="BackgroundImageFix"/>
<feBlend mode="normal" in="SourceGraphic" in2="BackgroundImageFix" result="shape"/>
<feGaussianBlur stdDeviation="5" result="effect1_foregroundBlur_49_1632"/>
</filter>
<clipPath id="clip0_49_1632">
<rect width="68.3282" height="23.4101" fill="white" transform="translate(16.3323 29.6875)"/>
</clipPath>
</defs>
</svg>
