<svg width="101" height="100" viewBox="0 0 101 100" fill="none" xmlns="http://www.w3.org/2000/svg">
<g filter="url(#filter0_i_49_1497)">
<path d="M100.174 23.6278V76.3378C100.177 79.4441 99.5681 82.5205 98.3814 85.3912C97.1948 88.2619 95.454 90.8706 93.2586 93.0681C91.0632 95.2656 88.4562 97.009 85.5867 98.1984C82.7171 99.3878 79.6413 100 76.535 100H23.8251C17.5554 99.997 11.5433 97.5058 7.10887 93.0736C2.67448 88.6413 0.180399 82.6304 0.174328 76.3607V23.6507C0.171315 20.545 0.780623 17.4691 1.9674 14.5991C3.15418 11.729 4.89514 9.1211 7.0907 6.92448C9.28625 4.72785 11.8933 2.98563 14.7628 1.79746C17.6323 0.609294 20.7079 -0.00150486 23.8136 2.78419e-06H76.5236C79.6279 -0.00150236 82.7022 0.608455 85.5708 1.79505C88.4394 2.98164 91.0462 4.72164 93.2424 6.91568C95.4386 9.10973 97.1811 11.7149 98.3705 14.5823C99.5599 17.4498 100.173 20.5235 100.174 23.6278Z" fill="#FCBC34"/>
</g>
<g style="mix-blend-mode:soft-light" opacity="0.4">
<path d="M50.4113 38.9804L47.6841 53.3152L50.4113 55.4924V38.9804Z" fill="black"/>
</g>
<g style="mix-blend-mode:soft-light" opacity="0.4">
<path d="M38.4556 74.2188C41.9746 77.2391 58.021 77.4467 61.8931 74.2188H38.4556Z" fill="black"/>
</g>
<path d="M69.2594 70.2032H31.3655C31.1934 70.2598 31.0103 70.2747 30.8313 70.2468C30.6523 70.219 30.4825 70.149 30.3357 70.0428C30.189 69.9366 30.0695 69.797 29.9872 69.6357C29.9048 69.4744 29.8618 69.2958 29.8618 69.1146C29.8618 68.9335 29.9048 68.7549 29.9872 68.5935C30.0695 68.4322 30.189 68.2927 30.3357 68.1864C30.4825 68.0802 30.6523 68.0103 30.8313 67.9824C31.0103 67.9545 31.1934 67.9695 31.3655 68.026H69.2594C69.4315 67.9695 69.6145 67.9545 69.7935 67.9824C69.9725 68.0103 70.1424 68.0802 70.2891 68.1864C70.4359 68.2927 70.5553 68.4322 70.6377 68.5935C70.7201 68.7549 70.763 68.9335 70.763 69.1146C70.763 69.2958 70.7201 69.4744 70.6377 69.6357C70.5553 69.797 70.4359 69.9366 70.2891 70.0428C70.1424 70.149 69.9725 70.219 69.7935 70.2468C69.6145 70.2747 69.4315 70.2598 69.2594 70.2032Z" fill="black"/>
<g clip-path="url(#clip0_49_1497)">
<path d="M83.7681 39.8747C83.7681 34.2485 79.221 29.6875 73.6118 29.6875C68.0027 29.6875 63.4556 34.2485 63.4556 39.8747V42.9378C63.4556 48.564 68.0027 53.125 73.6118 53.125C79.221 53.125 83.7681 48.564 83.7681 42.9378V39.8747Z" fill="black"/>
<path d="M70.3193 37.1357C71.3065 37.1357 72.1069 36.3353 72.1069 35.3481C72.1069 34.3609 71.3065 33.5605 70.3193 33.5605C69.3321 33.5605 68.5317 34.3609 68.5317 35.3481C68.5317 36.3353 69.3321 37.1357 70.3193 37.1357Z" fill="white"/>
<path opacity="0.1" d="M73.6309 44.0223C75.9282 44.0223 77.7904 42.16 77.7904 39.8628C77.7904 37.5656 75.9282 35.7033 73.6309 35.7033C71.3337 35.7033 69.4714 37.5656 69.4714 39.8628C69.4714 42.16 71.3337 44.0223 73.6309 44.0223Z" fill="white"/>
<path d="M36.1118 39.8747C36.1118 34.2485 31.5647 29.6875 25.9556 29.6875C20.3464 29.6875 15.7993 34.2485 15.7993 39.8747V42.9378C15.7993 48.564 20.3464 53.125 25.9556 53.125C31.5647 53.125 36.1118 48.564 36.1118 42.9378V39.8747Z" fill="black"/>
<path d="M22.663 37.1357C23.6503 37.1357 24.4506 36.3353 24.4506 35.3481C24.4506 34.3609 23.6503 33.5605 22.663 33.5605C21.6758 33.5605 20.8755 34.3609 20.8755 35.3481C20.8755 36.3353 21.6758 37.1357 22.663 37.1357Z" fill="white"/>
<path opacity="0.1" d="M25.9747 44.0223C28.2719 44.0223 30.1342 42.16 30.1342 39.8628C30.1342 37.5656 28.2719 35.7033 25.9747 35.7033C23.6775 35.7033 21.8152 37.5656 21.8152 39.8628C21.8152 42.16 23.6775 44.0223 25.9747 44.0223Z" fill="white"/>
</g>
<defs>
<filter id="filter0_i_49_1497" x="0.174316" y="0" width="100" height="100" filterUnits="userSpaceOnUse" color-interpolation-filters="sRGB">
<feFlood flood-opacity="0" result="BackgroundImageFix"/>
<feBlend mode="normal" in="SourceGraphic" in2="BackgroundImageFix" result="shape"/>
<feColorMatrix in="SourceAlpha" type="matrix" values="0 0 0 0 0 0 0 0 0 0 0 0 0 0 0 0 0 0 127 0" result="hardAlpha"/>
<feOffset dx="-6" dy="-6"/>
<feComposite in2="hardAlpha" operator="arithmetic" k2="-1" k3="1"/>
<feColorMatrix type="matrix" values="0 0 0 0 0 0 0 0 0 0 0 0 0 0 0 0 0 0 0.04 0"/>
<feBlend mode="normal" in2="shape" result="effect1_innerShadow_49_1497"/>
</filter>
<clipPath id="clip0_49_1497">
<rect width="68.3282" height="23.4101" fill="white" transform="translate(15.7993 29.6875)"/>
</clipPath>
</defs>
</svg>
