<svg width="101" height="100" viewBox="0 0 101 100" fill="none" xmlns="http://www.w3.org/2000/svg">
<g filter="url(#filter0_i_49_1496)">
<path d="M100.174 23.6278V76.3378C100.177 79.4441 99.5681 82.5205 98.3814 85.3912C97.1948 88.2619 95.454 90.8706 93.2586 93.0681C91.0632 95.2656 88.4562 97.0089 85.5867 98.1984C82.7171 99.3878 79.6413 100 76.535 100H23.8251C17.5554 99.9969 11.5433 97.5058 7.10887 93.0735C2.67448 88.6413 0.180399 82.6303 0.174328 76.3607V23.6507C0.171315 20.545 0.780623 17.4691 1.9674 14.5991C3.15418 11.729 4.89514 9.1211 7.0907 6.92448C9.28626 4.72785 11.8933 2.98563 14.7628 1.79746C17.6323 0.609294 20.7079 -0.00150486 23.8136 2.78419e-06H76.5236C79.6279 -0.00150236 82.7022 0.608455 85.5708 1.79505C88.4394 2.98164 91.0462 4.72164 93.2424 6.91568C95.4386 9.10973 97.1811 11.7149 98.3705 14.5823C99.5599 17.4498 100.173 20.5235 100.174 23.6278V23.6278Z" fill="#FCBC34"/>
</g>
<g style="mix-blend-mode:soft-light" opacity="0.4">
<path d="M50.4113 38.9804L47.6841 53.3152L50.4113 55.4924V38.9804Z" fill="black"/>
</g>
<path d="M39.3029 85.1562C39.5114 85.1563 39.7154 85.0954 39.8901 84.9809C40.0648 84.8664 40.2027 84.7032 40.2869 84.5113C41.6066 81.9169 41.93 78.9241 41.1955 76.1048C40.4609 73.2855 38.7199 70.8375 36.3052 69.2289C33.8786 67.5848 30.9354 66.8979 28.0377 67.2994C25.1399 67.7009 22.4906 69.1627 20.5956 71.4055C20.4926 71.6259 20.4617 71.8735 20.5073 72.1127C20.553 72.3518 20.6727 72.5703 20.8495 72.7367C21.0262 72.903 21.2507 73.0087 21.4909 73.0385C21.731 73.0683 21.9744 73.0208 22.186 72.9026C23.7398 71.0537 25.9154 69.8451 28.2979 69.5074C30.6804 69.1696 33.1031 69.7264 35.1038 71.0715C38.2389 73.179 40.9734 77.7396 38.3075 83.6245C38.2126 83.8944 38.2209 84.1902 38.3309 84.4542C38.4409 84.7183 38.6447 84.9316 38.9025 85.0526C39.0275 85.1143 39.1638 85.1496 39.3029 85.1562V85.1562Z" fill="black"/>
<path d="M73.6118 50C76.3054 50 78.8887 48.93 80.7934 47.0253C82.698 45.1207 83.7681 42.5374 83.7681 39.8439V39.3292C83.7681 31.1631 74.7441 25.8792 68.9797 26.6341C63.8673 27.286 63.4556 30.557 63.4556 35.4177V39.8439C63.4586 42.5365 64.5296 45.118 66.4336 47.022C68.3376 48.926 70.9191 49.997 73.6118 50Z" fill="black"/>
<path d="M70.3501 34.1167C71.3373 34.1167 72.1376 33.3164 72.1376 32.3292C72.1376 31.3419 71.3373 30.5416 70.3501 30.5416C69.3628 30.5416 68.5625 31.3419 68.5625 32.3292C68.5625 33.3164 69.3628 34.1167 70.3501 34.1167Z" fill="white"/>
<path opacity="0.1" d="M73.6615 41.0034C75.9587 41.0034 77.821 39.1411 77.821 36.8439C77.821 34.5467 75.9587 32.6844 73.6615 32.6844C71.3642 32.6844 69.502 34.5467 69.502 36.8439C69.502 39.1411 71.3642 41.0034 73.6615 41.0034Z" fill="white"/>
<path d="M25.9498 50C23.2567 49.997 20.6749 48.9256 18.7716 47.0213C16.8684 45.117 15.7993 42.5355 15.7993 39.8439V39.3292C15.7993 31.1631 24.8169 25.8792 30.5845 26.6341C35.7113 27.286 36.1118 30.557 36.1118 35.4177V39.8439C36.1118 42.5374 35.0412 45.1207 33.1354 47.0253C31.2297 48.93 28.645 50 25.9498 50V50Z" fill="black"/>
<path d="M22.705 34.1167C23.6923 34.1167 24.4926 33.3164 24.4926 32.3292C24.4926 31.3419 23.6923 30.5416 22.705 30.5416C21.7178 30.5416 20.9175 31.3419 20.9175 32.3292C20.9175 33.3164 21.7178 34.1167 22.705 34.1167Z" fill="white"/>
<path opacity="0.1" d="M26.0167 41.0034C28.3139 41.0034 30.1762 39.1411 30.1762 36.8439C30.1762 34.5467 28.3139 32.6844 26.0167 32.6844C23.7195 32.6844 21.8572 34.5467 21.8572 36.8439C21.8572 39.1411 23.7195 41.0034 26.0167 41.0034Z" fill="white"/>
<path d="M85.3302 62.1505C85.3379 62.8045 85.214 63.4535 84.9659 64.0605C84.7177 64.6676 84.3501 65.2207 83.884 65.6884C82.9425 66.633 81.6571 67.1721 80.3103 67.1872C78.9635 67.2023 77.6658 66.6921 76.7027 65.7689C75.7395 64.8457 75.1897 63.5851 75.1743 62.2644C75.1743 58.2806 78.3807 56.3883 80.0927 50C81.6451 56.2175 85.2867 57.7399 85.3302 62.1505Z" fill="#4ABCF4"/>
<defs>
<filter id="filter0_i_49_1496" x="0.174316" y="0" width="100" height="100" filterUnits="userSpaceOnUse" color-interpolation-filters="sRGB">
<feFlood flood-opacity="0" result="BackgroundImageFix"/>
<feBlend mode="normal" in="SourceGraphic" in2="BackgroundImageFix" result="shape"/>
<feColorMatrix in="SourceAlpha" type="matrix" values="0 0 0 0 0 0 0 0 0 0 0 0 0 0 0 0 0 0 127 0" result="hardAlpha"/>
<feOffset dx="-6" dy="-6"/>
<feComposite in2="hardAlpha" operator="arithmetic" k2="-1" k3="1"/>
<feColorMatrix type="matrix" values="0 0 0 0 0 0 0 0 0 0 0 0 0 0 0 0 0 0 0.04 0"/>
<feBlend mode="normal" in2="shape" result="effect1_innerShadow_49_1496"/>
</filter>
</defs>
</svg>
