<svg width="130" height="40" viewBox="0 0 130 40" fill="none" xmlns="http://www.w3.org/2000/svg">
<path d="M4.74551 14.7025C3.56731 18.362 2.97821 20.577 2.97821 21.3475C2.97821 21.6043 3.05458 21.8183 3.20731 21.9895C3.38185 22.1393 3.60004 22.2142 3.86186 22.2142C6.37098 22.2142 9.14192 21.8183 12.1747 21.0264C13.1565 20.7696 13.7238 20.6412 13.8765 20.6412C14.2038 20.6412 14.3674 20.8659 14.3674 21.3154C14.3674 22.0858 13.1565 22.8776 10.7347 23.6909C8.33464 24.5041 6.01097 24.9107 3.76368 24.9107C2.76003 24.9107 1.87638 24.6218 1.11274 24.044C0.370913 23.4662 0 22.7385 0 21.8611C0 20.9836 0.316367 19.4856 0.949101 17.3669C1.60365 15.2482 2.25821 12.9904 2.91276 10.5935C3.56731 8.19657 3.89459 6.17418 3.89459 4.5263C3.89459 4.29089 3.93822 4.04478 4.0255 3.78797C4.39641 2.99613 6.77462 2.60022 11.1601 2.60022C15.5456 2.60022 17.7384 2.91053 17.7384 3.53116C17.7384 3.95918 17.2693 4.24809 16.3311 4.3979C15.5456 4.5477 14.4983 4.68681 13.1892 4.81522C11.9019 4.92222 10.9965 5.00782 10.4728 5.07203C9.9492 5.11483 8.68373 5.30744 6.67644 5.64985V5.74616C6.67644 7.20142 6.27279 9.39502 5.46551 12.327C5.59642 12.3484 6.03279 12.3591 6.77462 12.3591C7.53826 12.3591 8.55282 12.3056 9.81829 12.1985C11.0838 12.0915 12.0329 12.038 12.6656 12.038C13.3201 12.038 13.6474 12.1878 13.6474 12.4875C13.6474 13.2365 12.7529 13.7929 10.9638 14.1567C9.17464 14.5206 7.10189 14.7025 4.74551 14.7025Z" fill="white"/>
<path d="M33.3809 2.3113C35.9337 2.3113 37.8646 3.30645 39.1737 5.29674C40.4828 7.28703 41.1373 9.79094 41.1373 12.8085C41.1373 15.826 40.3737 18.576 38.8464 21.0585C37.3409 23.5197 35.5955 24.7502 33.61 24.7502C32.2136 24.7502 31.1881 23.9798 30.5336 22.4389C29.879 20.898 29.4536 18.7044 29.2572 15.8581C28.3408 17.1208 27.2936 18.5546 26.1154 20.1597C23.8462 23.2414 22.2535 24.7823 21.3371 24.7823C20.988 24.7823 20.5844 24.5041 20.1262 23.9477C19.668 23.3913 19.4389 22.6957 19.4389 21.8611C19.4389 21.005 19.7335 18.362 20.3226 13.932C20.9117 9.48063 21.2062 6.01367 21.2062 3.53116C21.2062 2.73932 21.4462 2.3434 21.9262 2.3434C22.4062 2.3434 22.9626 2.62162 23.5953 3.17804C24.2499 3.73447 24.5772 4.24809 24.5772 4.71891C24.5772 5.16833 24.2063 7.42613 23.4644 11.4923C22.7444 15.5585 22.2971 18.7472 22.1226 21.0585C23.4535 18.8542 24.9481 16.8212 26.6063 14.9593C28.2863 13.076 29.4863 12.1343 30.2063 12.1343C30.9481 12.1343 31.4609 13.7394 31.7445 16.9496C31.8536 18.148 32.0609 19.2502 32.3663 20.256C32.6936 21.2619 33.13 21.7648 33.6754 21.7648C34.8973 21.7648 35.9555 20.8017 36.85 18.8756C37.7664 16.9282 38.2246 14.7774 38.2246 12.4233C38.2246 9.81234 37.6355 7.80065 36.4573 6.38819C35.8464 5.63915 35.17 5.26464 34.4282 5.26464C33.7082 5.26464 33.0863 5.01852 32.5627 4.5263C32.0609 4.03408 31.81 3.60606 31.81 3.24224C31.81 2.62162 32.3336 2.3113 33.3809 2.3113Z" fill="white"/>
<path d="M56.7558 14.3172C56.7558 15.4515 56.1231 16.3824 54.8576 17.1101C53.614 17.8163 52.1958 18.1694 50.603 18.1694C49.0321 18.1694 47.603 17.9982 46.3157 17.6558C46.0103 18.5974 45.8575 19.4428 45.8575 20.1918C45.8575 20.9194 46.0866 21.4866 46.5448 21.8932C47.0248 22.2998 47.7994 22.5031 48.8685 22.5031C49.9594 22.5031 51.0721 22.3212 52.2067 21.9574C53.3631 21.5722 53.9958 21.3796 54.1049 21.3796C54.6722 21.3796 54.9558 21.5936 54.9558 22.0216C54.9558 22.5994 54.2904 23.2307 52.9594 23.9156C51.6285 24.579 50.3303 24.9107 49.0648 24.9107C47.363 24.9107 45.9775 24.4185 44.9084 23.4341C43.8393 22.4282 43.3048 21.1656 43.3048 19.6461C43.3048 18.1266 43.7193 16.5429 44.5484 14.8951C45.3775 13.2258 46.4466 11.824 47.7557 10.6898C49.0648 9.55553 50.363 8.9884 51.6503 8.9884C52.9376 8.9884 54.1049 9.58763 55.1522 10.7861C56.2213 11.9845 56.7558 13.1616 56.7558 14.3172ZM51.814 11.5244C51.0067 11.5244 50.1667 11.9417 49.2939 12.7764C48.4212 13.5896 47.6794 14.6062 47.0685 15.826C47.9412 16.0186 48.9339 16.1149 50.0467 16.1149C51.1594 16.1149 52.1303 15.9437 52.9594 15.6013C53.7885 15.2375 54.2031 14.7667 54.2031 14.1888C54.2031 13.611 53.9304 13.0225 53.3849 12.4233C52.8612 11.824 52.3376 11.5244 51.814 11.5244Z" fill="#FCBC34"/>
<path d="M67.1369 8.9884C68.1187 8.9884 69.0242 9.48063 69.8533 10.4651C70.6824 11.4281 71.0969 12.3056 71.0969 13.0974C71.0969 13.8678 70.8242 14.6597 70.2787 15.4729C70.5406 15.7939 70.6715 16.0721 70.6715 16.3075C70.6715 16.9068 70.5296 17.934 70.246 19.3893C69.9842 20.8445 69.8205 21.7969 69.7551 22.2463C69.7115 22.6957 69.6678 23.0595 69.6242 23.3377C69.5805 23.5946 69.526 23.8514 69.4605 24.1082C69.3733 24.6432 69.1769 24.9107 68.8714 24.9107C68.4787 24.9107 68.1514 24.579 67.8896 23.9156C67.6496 23.2307 67.5078 22.3533 67.4642 21.2833C65.5223 23.7016 63.7223 24.9107 62.0641 24.9107C61.0605 24.9107 60.0677 24.4934 59.0859 23.6588C58.1259 22.8027 57.6459 21.9253 57.6459 21.0264C57.6459 19.7424 58.1259 18.1587 59.0859 16.2754C60.0459 14.3707 61.2895 12.6801 62.8168 11.2034C64.3441 9.72674 65.7841 8.9884 67.1369 8.9884ZM68.6424 14.6383C68.6424 12.648 68.2387 11.6528 67.4314 11.6528C66.5805 11.6528 65.5878 12.2521 64.4532 13.4505C63.3187 14.6276 62.3586 15.9651 61.5732 17.4632C60.7877 18.9613 60.395 20.149 60.395 21.0264C60.395 21.3903 60.5477 21.6899 60.8532 21.9253C61.1586 22.1393 61.5186 22.2463 61.9332 22.2463C62.9587 22.2463 64.115 21.5722 65.4023 20.2239C66.6896 18.8542 67.5842 17.1957 68.086 15.2482C68.1514 14.9272 68.3369 14.7346 68.6424 14.6704V14.6383Z" fill="#FCBC34"/>
<path d="M77.4379 21.7006C77.4379 22.1072 77.6779 22.3105 78.1579 22.3105C78.987 22.3105 79.9907 22.0858 81.1688 21.6364C82.3689 21.1656 83.0343 20.9301 83.1652 20.9301C83.558 20.9301 83.7543 21.1334 83.7543 21.5401C83.7543 22.1607 83.0998 22.8776 81.7907 23.6909C80.5034 24.5041 79.3252 24.9107 78.2561 24.9107C77.2088 24.9107 76.3361 24.6325 75.6379 24.0761C74.9397 23.4983 74.5906 22.9097 74.5906 22.3105C74.5906 21.7113 74.7215 20.9515 74.9833 20.0313C75.2451 19.0897 75.6161 17.8591 76.0961 16.3396C76.5979 14.7988 76.9906 13.5254 77.2743 12.5196C76.2488 12.755 75.5615 12.8727 75.2124 12.8727C74.8633 12.8727 74.5142 12.7015 74.1651 12.3591C73.8379 11.9952 73.6742 11.6528 73.6742 11.3318C73.6742 10.8182 75.0924 10.326 77.9288 9.85514C78.3215 8.07886 78.5179 6.50589 78.5179 5.13623C78.5179 4.4942 78.7361 4.17319 79.1725 4.17319C79.5434 4.17319 80.0016 4.4086 80.547 4.87942C81.0925 5.32884 81.3652 5.84246 81.3652 6.42029C81.3652 6.99811 81.1798 8.01466 80.8088 9.46993C82.0525 9.36292 83.0452 9.30942 83.7871 9.30942C85.0962 9.30942 85.7507 9.58763 85.7507 10.1441C85.7507 10.4651 85.3907 10.7326 84.6707 10.9466C83.9725 11.1606 82.4889 11.4923 80.2198 11.9417C79.7616 13.6324 79.1834 15.5692 78.4852 17.7521C77.787 19.9136 77.4379 21.2298 77.4379 21.7006Z" fill="white"/>
<path d="M90.2906 1.25196C90.2906 0.417319 90.5525 0 91.0761 0C91.4907 0 91.927 0.321015 92.3852 0.963043C92.8652 1.60507 93.1052 2.2257 93.1052 2.82493C93.1052 4.21599 92.7452 6.5915 92.0252 9.95145C91.327 13.29 90.4107 16.6285 89.2761 19.9671C91.4579 16.0935 93.2798 13.3007 94.7416 11.5886C96.2253 9.85514 97.4907 8.9884 98.538 8.9884C99.1053 8.9884 99.7598 9.46993 100.502 10.433C101.265 11.396 101.647 12.3591 101.647 13.3221C101.647 14.2851 101.374 15.7297 100.829 17.6558C99.4762 22.4924 98.1998 24.9107 96.9998 24.9107C96.5198 24.9107 96.2798 24.5897 96.2798 23.9477C96.2798 23.3056 96.5416 22.2249 97.0653 20.7054C98.2216 17.3883 98.7998 15.1519 98.7998 13.9962C98.7998 13.611 98.7016 13.29 98.5053 13.0332C98.3089 12.7764 98.0689 12.648 97.7853 12.648C97.5016 12.648 97.1525 12.7978 96.738 13.0974C96.3234 13.397 95.8216 13.9213 95.2325 14.6704C94.4907 15.6334 93.7161 16.7142 92.9089 17.9126C92.1234 19.1111 91.6434 19.8387 91.4688 20.0955C91.3161 20.3309 91.0325 20.7696 90.6179 21.4117C90.2252 22.0537 89.9306 22.5352 89.7343 22.8562C89.5379 23.1558 89.2979 23.4876 89.0143 23.8514C88.5125 24.5576 88.1306 24.9107 87.8688 24.9107C87.607 24.9107 87.2579 24.6753 86.8215 24.2045C86.3852 23.7123 86.167 23.3056 86.167 22.9846C86.167 22.6422 86.287 22.0109 86.527 21.0906C87.6179 16.9817 88.3052 14.1674 88.5888 12.648C89.7234 7.08372 90.2906 3.28505 90.2906 1.25196Z" fill="white"/>
<path d="M117.033 14.3172C117.033 15.4515 116.401 16.3824 115.135 17.1101C113.892 17.8163 112.473 18.1694 110.881 18.1694C109.31 18.1694 107.881 17.9982 106.593 17.6558C106.288 18.5974 106.135 19.4428 106.135 20.1918C106.135 20.9194 106.364 21.4866 106.822 21.8932C107.302 22.2998 108.077 22.5031 109.146 22.5031C110.237 22.5031 111.35 22.3212 112.484 21.9574C113.641 21.5722 114.273 21.3796 114.383 21.3796C114.95 21.3796 115.233 21.5936 115.233 22.0216C115.233 22.5994 114.568 23.2307 113.237 23.9156C111.906 24.579 110.608 24.9107 109.342 24.9107C107.641 24.9107 106.255 24.4185 105.186 23.4341C104.117 22.4282 103.582 21.1656 103.582 19.6461C103.582 18.1266 103.997 16.5429 104.826 14.8951C105.655 13.2258 106.724 11.824 108.033 10.6898C109.342 9.55553 110.641 8.9884 111.928 8.9884C113.215 8.9884 114.383 9.58763 115.43 10.7861C116.499 11.9845 117.033 13.1616 117.033 14.3172ZM112.092 11.5244C111.284 11.5244 110.444 11.9417 109.572 12.7764C108.699 13.5896 107.957 14.6062 107.346 15.826C108.219 16.0186 109.212 16.1149 110.324 16.1149C111.437 16.1149 112.408 15.9437 113.237 15.6013C114.066 15.2375 114.481 14.7667 114.481 14.1888C114.481 13.611 114.208 13.0225 113.663 12.4233C113.139 11.824 112.615 11.5244 112.092 11.5244Z" fill="white"/>
<path d="M120.673 12.9048L120.574 10.4972C120.574 9.49133 120.814 8.9884 121.294 8.9884C121.709 8.9884 122.102 9.25591 122.473 9.79094C122.865 10.3046 123.062 10.9252 123.062 11.6528C123.062 12.3591 123.04 12.8941 122.996 13.2579C124.894 10.433 126.695 9.0205 128.396 9.0205C129.465 9.0205 130 9.27732 130 9.79094C130 10.0478 129.88 10.2832 129.64 10.4972C129.4 10.7112 129.018 10.9573 128.495 11.2355C127.338 11.7277 126.356 12.4875 125.549 13.5147C124.764 14.5206 124.12 15.6655 123.618 16.9496C123.116 18.2336 122.713 19.3144 122.407 20.1918C122.124 21.0692 121.905 21.7541 121.753 22.2463C121.6 22.7385 121.425 23.22 121.229 23.6909C120.88 24.5469 120.476 24.9749 120.018 24.9749C119.647 24.9749 119.342 24.7716 119.102 24.365C118.884 23.937 118.774 23.5304 118.774 23.1451C118.774 22.7385 118.96 21.9467 119.331 20.7696C120.225 18.0731 120.673 15.4515 120.673 12.9048Z" fill="white"/>
<path d="M72.598 22.956C64.4267 34.5935 53.0486 33.2524 46.6446 30.0544C45.4864 29.476 43.9593 30.2468 43.9593 31.5257C43.9593 32.0759 44.2621 32.5954 44.7516 32.8607C59.2212 40.7036 69.3002 29.333 72.598 22.956Z" fill="#FCBC34"/>
</svg>
